<?xml version="1.0" encoding="UTF-8"?><svg id="_x3C_Layer_x3E_" xmlns="http://www.w3.org/2000/svg" viewBox="0 0 1200 900"><defs><style>.cls-1{fill:#fff;}</style></defs><rect x="626.67" y="82.13" width="11.5" height="3.86" transform="translate(1020.17 590.69) rotate(-135)"/><path d="M621.15,80.61s-.02.06.01.08c0,0,6.16,4.54,8.46,4.54l1.79,1.79,3.96-3.96-1.79-1.79c0-2.3-4.54-8.46-4.54-8.46-.02-.03-.05-.03-.08-.01,0,0-2.75,1.17-4.7,3.12s-3.12,4.7-3.12,4.7Z"/><rect x="612.61" y="97.49" width="11.5" height="3.86" transform="translate(985.3 606.96) rotate(-135)"/><path d="M607.08,95.96s-.02.06.01.08c0,0,6.16,4.54,8.46,4.54l1.79,1.79,3.96-3.96-1.79-1.79c0-2.3-4.54-8.46-4.54-8.46-.02-.03-.05-.03-.08-.01,0,0-2.75,1.17-4.7,3.12s-3.12,4.7-3.12,4.7Z"/><rect x="597.25" y="111.55" width="11.5" height="3.86" transform="translate(949.14 620.11) rotate(-135)"/><path d="M591.73,110.03s-.02.06.01.08c0,0,6.16,4.54,8.46,4.54l1.79,1.79,3.96-3.96-1.79-1.79c0-2.3-4.54-8.46-4.54-8.46-.02-.03-.05-.03-.08-.01,0,0-2.75,1.17-4.7,3.12s-3.12,4.7-3.12,4.7Z"/><polygon points="864.72 -137.44 889.93 -112.22 688.74 81.98 670.52 63.76 864.72 -137.44"/><rect class="cls-1" x="665.69" y="72.43" width="25.76" height="2.97" transform="translate(1106.13 606.02) rotate(-135)"/><path d="M591.91,127.98c-.6.57-.4,1.57.38,1.87,1.62.62,3.81,1.7,4.54,2.43,2.47,2.47,3.96,9.96,6.42,12.41l2.28,2.28,72-72-9.34-9.34c-8.15,8.15-15.23,9.17-18.4,9.14-1.26-.01-2.45.48-3.36,1.35,0,0-17.93,19.43-25.28,26.78-8.7,8.7-29.23,25.07-29.23,25.07Z"/><rect x="662.69" y="118.15" width="11.5" height="3.86" transform="translate(280.69 -437.49) rotate(45)"/><path d="M671.89,131.35s-.06.02-.08-.01c0,0-4.54-6.16-4.54-8.46l-1.79-1.79,3.96-3.96,1.79,1.79c2.3,0,8.46,4.54,8.46,4.54.03.02.03.05.01.08,0,0-1.17,2.75-3.12,4.7s-4.7,3.12-4.7,3.12Z"/><rect x="647.33" y="132.21" width="11.5" height="3.86" transform="translate(286.14 -422.51) rotate(45)"/><path d="M656.53,145.41s-.06.02-.08-.01c0,0-4.54-6.16-4.54-8.46l-1.79-1.79,3.96-3.96,1.79,1.79c2.3,0,8.46,4.54,8.46,4.54.03.02.03.05.01.08,0,0-1.17,2.75-3.12,4.7s-4.7,3.12-4.7,3.12Z"/><rect x="633.27" y="147.57" width="11.5" height="3.86" transform="translate(292.87 -408.06) rotate(45)"/><path d="M642.47,160.77s-.06.02-.08-.01c0,0-4.54-6.16-4.54-8.46l-1.79-1.79,3.96-3.96,1.79,1.79c2.3,0,8.46,4.54,8.46,4.54.03.02.03.05.01.08,0,0-1.17,2.75-3.12,4.7s-4.7,3.12-4.7,3.12Z"/><path d="M624.51,160.59c-.57.6-1.57.4-1.87-.38-.62-1.62-1.7-3.81-2.43-4.54-2.47-2.47-9.96-3.96-12.41-6.42l-2.28-2.28,72-72,9.34,9.34c-8.15,8.15-9.17,15.23-9.14,18.4.01,1.26-.48,2.45-1.35,3.36,0,0-19.42,17.93-26.78,25.28-8.7,8.7-25.07,29.23-25.07,29.23Z"/><path class="cls-1" d="M629.09,138.82c1.63-1.63,4.28-1.63,5.91,0s1.63,4.28,0,5.91-4.28,1.63-5.91,0-1.63-4.28,0-5.91Z"/><circle class="cls-1" cx="645.99" cy="126.04" r="4.18" transform="translate(-3.16 17.46) rotate(-1.54)"/><circle class="cls-1" cx="660.42" cy="111.61" r="4.18" transform="translate(114.51 499.68) rotate(-45)"/><circle class="cls-1" cx="610.73" cy="120.46" r="4.18"/><circle class="cls-1" cx="626.46" cy="106.51" r="4.18" transform="translate(168.8 547.35) rotate(-53.58)"/><circle class="cls-1" cx="640.89" cy="92.08" r="4.18"/><polygon class="cls-1" points="703.74 67.49 704.45 66.81 685.69 48.04 685 48.76 703.74 67.49"/><polygon class="cls-1" points="718.52 53.23 719.23 52.55 699.95 33.27 699.26 33.98 718.52 53.23"/><polygon class="cls-1" points="732.23 40 732.94 39.31 713.19 19.55 712.5 20.27 732.23 40"/><polygon class="cls-1" points="745.24 27.44 745.95 26.76 725.74 6.55 725.05 7.26 745.24 27.44"/><polygon class="cls-1" points="757.48 15.62 758.2 14.94 737.56 -5.7 736.87 -4.99 757.48 15.62"/><polygon class="cls-1" points="769.07 4.44 769.78 3.75 748.75 -17.29 748.06 -16.57 769.07 4.44"/><path class="cls-1" d="M706.45,34.26l11.79,11.79c.44.44,1.17.37,1.52-.14l4.86-7.13c.27-.39.22-.92-.12-1.26l-9.52-9.52c-.34-.34-.86-.39-1.26-.12l-7.13,4.86c-.51.35-.58,1.08-.14,1.52Z"/><path class="cls-1" d="M731.92,8.79l11.79,11.79c.44.44,1.17.37,1.52-.14l4.86-7.13c.27-.39.22-.92-.12-1.26l-9.52-9.52c-.34-.34-.86-.39-1.26-.12l-7.13,4.86c-.51.35-.58,1.08-.14,1.52Z"/><polygon class="cls-1" points="973.71 -199.65 974.31 -199.05 686.35 83.8 659.16 110.36 658.57 109.75 685.76 83.19 973.71 -199.65"/><polygon class="cls-1" points="969.28 -204.08 969.88 -203.48 683.01 80.46 644.76 124.76 644.11 124.2 682.39 79.88 969.28 -204.08"/><polygon class="cls-1" points="964.84 -208.51 965.44 -207.91 679.57 77.02 630.83 140.47 630.15 139.96 678.94 76.46 964.84 -208.51"/><polygon class="cls-1" points="961.01 -212.34 676.08 73.53 612.54 122.35 612.02 121.67 675.52 72.89 960.41 -212.95 961.01 -212.34"/><polygon class="cls-1" points="956.58 -216.78 672.65 70.09 628.29 108.38 627.73 107.74 672.06 69.47 955.97 -217.38 956.58 -216.78"/><polygon class="cls-1" points="952.15 -221.21 669.3 66.74 642.74 93.93 642.13 93.34 668.69 66.15 951.54 -221.81 952.15 -221.21"/><path d="M633.6,140.22c.86.86.86,2.25,0,3.11s-2.25.86-3.11,0-.86-2.25,0-3.11,2.25-.86,3.11,0Z"/><path d="M647.54,124.48c.86.86.86,2.25,0,3.11s-2.25.86-3.11,0-.86-2.25,0-3.11,2.25-.86,3.11,0Z"/><path d="M661.97,110.05c.86.86.86,2.25,0,3.11s-2.25.86-3.11,0-.86-2.25,0-3.11,2.25-.86,3.11,0Z"/><path d="M612.28,118.9c.86.86.86,2.25,0,3.11s-2.25.86-3.11,0-.86-2.25,0-3.11,2.25-.86,3.11,0Z"/><path d="M628.01,104.95c.86.86.86,2.25,0,3.11s-2.25.86-3.11,0-.86-2.25,0-3.11,2.25-.86,3.11,0Z"/><path d="M642.44,90.52c.86.86.86,2.25,0,3.11s-2.25.86-3.11,0-.86-2.25,0-3.11,2.25-.86,3.11,0Z"/><path d="M886,674.46c-9.96,9.96-33.76,13.56-52.81,32.61-25.74,25.74-21.82,50.44-19.16,59.43.43,1.46,2.36,1.76,3.19.49,5.1-7.72,19.61-26.26,33.57-12.3,15.67,15.67-15.56,62.57-15.56,62.57,0,0,46.9-31.23,62.57-15.56,13.95,13.95-4.58,28.46-12.3,33.57-1.27.84-.97,2.76.49,3.19,9,2.66,33.7,6.58,59.43-19.16,19.05-19.05,22.65-42.85,32.61-52.81,19.64-19.64,38.13,3.81,72.61-30.67,19.44-19.44,15.77-60.26-6.36-82.39l-22.61-22.61-22.61-22.61c-22.14-22.14-62.95-25.81-82.39-6.36-34.48,34.48-11.03,52.97-30.67,72.61Z"/><path class="cls-1" d="M908.42,648.29s4.64-.42,11.38,6.32c7.73,7.73,11.93,25.7,22.49,36.26,14.62,14.62,26.71,15.74,36.41,25.43,6.26,6.26,4.78,10.68,4.78,10.68,0,0-17.85,11.11-36.55,29.8-16.87,16.87-21.5,38.09-21.5,38.09,0,0-5.2-4.92-6.89-6.61-7.73-7.73-28.6-.49-28.6-.49l-25.22-25.22s7.16-22.36-2.12-31.63c-10.82-10.82-22.91-2.67-22.91-2.67,0,0,2.25-13.49,14.34-25.58,13.21-13.21,28.95-15.18,38.79-25.02,12.09-12.09,15.6-29.37,15.6-29.37Z"/><polygon points="864.72 762.56 889.93 787.78 688.74 981.98 670.52 963.76 864.72 762.56"/><rect x="872.94" y="747.33" width="41.75" height="22.7" rx="1" ry="1" transform="translate(989.38 1927.17) rotate(-135)"/><rect x="909.5" y="710.78" width="41.75" height="22.7" rx="1" ry="1" transform="translate(1077.62 1890.62) rotate(-135)"/><path d="M940.01,673.02l39.47,39.47s2.65.15,4.88-2.08c2.22-2.22,2.08-4.88,2.08-4.88l-39.47-39.47s-2.65-.15-4.88,2.08c-2.22,2.22-2.08,4.88-2.08,4.88Z"/><rect x="921.76" y="700.39" width="53.23" height="7.47" rx="1.1" ry="1.1" transform="translate(1196.91 1858.87) rotate(-138.74)"/><path class="cls-1" d="M935.17,643.89c3.05-3.05,8-3.05,11.06,0,3.05,3.05,3.05,8,0,11.06-3.05,3.05-8,3.05-11.06,0s-3.05-8,0-11.06Z"/><path class="cls-1" d="M963.06,624.57c3.05-3.05,8-3.05,11.06,0,3.05,3.05,3.05,8,0,11.06s-8,3.05-11.06,0c-3.05-3.05-3.05-8,0-11.06Z"/><path class="cls-1" d="M910.85,628.97c3.05-3.05,8-3.05,11.06,0s3.05,8,0,11.06-8,3.05-11.06,0-3.05-8,0-11.06Z"/><path class="cls-1" d="M938.74,609.65c3.05-3.05,8-3.05,11.06,0s3.05,8,0,11.06-8,3.05-11.06,0c-3.05-3.05-3.05-8,0-11.06Z"/><polygon class="cls-1" points="757.48 915.62 758.2 914.94 737.56 894.3 736.87 895.01 757.48 915.62"/><polygon class="cls-1" points="769.07 904.44 769.78 903.75 748.75 882.71 748.06 883.43 769.07 904.44"/><polygon class="cls-1" points="779.84 894.04 780.55 893.36 759.14 871.94 758.45 872.66 779.84 894.04"/><polygon class="cls-1" points="790.13 884.11 790.84 883.43 769.07 861.66 768.38 862.37 790.13 884.11"/><polygon class="cls-1" points="799.63 874.94 800.35 874.25 778.25 852.15 777.56 852.86 799.63 874.94"/><polygon class="cls-1" points="808.7 866.19 809.41 865.5 786.99 843.09 786.31 843.8 808.7 866.19"/><polygon class="cls-1" points="817.27 857.91 817.98 857.23 795.27 834.51 794.58 835.23 817.27 857.91"/><polygon class="cls-1" points="825.36 850.11 826.07 849.42 803.07 826.43 802.39 827.14 825.36 850.11"/><polygon class="cls-1" points="832.95 842.78 833.66 842.09 810.4 818.83 809.72 819.55 832.95 842.78"/><polygon class="cls-1" points="840.2 835.78 840.91 835.1 817.4 811.58 816.71 812.3 840.2 835.78"/><polygon class="cls-1" points="846.91 829.3 847.63 828.62 823.88 804.87 823.19 805.58 846.91 829.3"/><polygon class="cls-1" points="853.33 823.11 854.04 822.42 830.08 798.45 829.39 799.16 853.33 823.11"/><polygon class="cls-1" points="859.26 817.39 859.97 816.7 835.8 792.52 835.11 793.24 859.26 817.39"/><polygon class="cls-1" points="864.94 811.9 865.66 811.21 841.28 786.84 840.6 787.55 864.94 811.9"/><polygon class="cls-1" points="870.41 806.62 871.12 805.94 846.56 781.37 845.87 782.09 870.41 806.62"/><polygon class="cls-1" points="875.39 801.81 876.11 801.13 851.37 776.39 850.68 777.1 875.39 801.81"/><polygon class="cls-1" points="880.15 797.23 880.86 796.54 855.96 771.64 855.27 772.35 880.15 797.23"/><polygon class="cls-1" points="860.27 767.17 859.58 767.88 884.61 792.92 885.33 792.23 860.27 767.17"/><path class="cls-1" d="M755.44,885.27l11.79,11.79c.44.44,1.08.46,1.33.04l3.52-5.79c.19-.32.09-.79-.25-1.13l-9.52-9.52c-.34-.34-.81-.44-1.13-.25l-5.79,3.52c-.42.25-.4.89.04,1.33Z"/><path class="cls-1" d="M775.51,865.2l11.79,11.79c.44.44,1.08.46,1.33.04l3.52-5.79c.19-.32.09-.79-.25-1.13l-9.52-9.52c-.34-.34-.81-.44-1.13-.25l-5.79,3.52c-.42.25-.4.89.04,1.33Z"/><path class="cls-1" d="M802.21,838.51l11.79,11.79c.44.44,1,.54,1.17.2l2.35-4.62c.13-.25-.02-.68-.36-1.02l-9.52-9.52c-.34-.34-.76-.49-1.02-.36l-4.62,2.35c-.33.17-.23.73.2,1.17Z"/><path class="cls-1" d="M824.06,816.65l11.79,11.79c.44.44,1,.54,1.17.2l2.35-4.62c.13-.25-.02-.68-.36-1.02l-9.52-9.52c-.34-.34-.76-.49-1.02-.36l-4.62,2.35c-.33.17-.23.73.2,1.17Z"/><path class="cls-1" d="M837.67,803.04l11.79,11.79c.44.44.88.65.93.45l.59-2.86c.03-.16-.19-.51-.52-.85l-9.52-9.52c-.34-.34-.69-.56-.85-.52l-2.86.59c-.21.04.01.49.45.93Z"/><path class="cls-1" d="M848.85,791.86l11.79,11.79c.44.44.88.65.93.45l.59-2.86c.03-.16-.19-.51-.52-.85l-9.52-9.52c-.34-.34-.69-.56-.85-.52l-2.86.59c-.21.04.01.49.45.93Z"/><path class="cls-1" d="M858.77,781.94l11.79,11.79c.44.44.88.65.93.45l.59-2.86c.03-.16-.19-.51-.52-.85l-9.52-9.52c-.34-.34-.69-.56-.85-.52l-2.86.59c-.21.04.01.49.45.93Z"/><polygon class="cls-1" points="973.71 700.35 974.31 700.95 686.35 983.8 659.16 1010.36 658.57 1009.75 685.76 983.19 973.71 700.35"/><polygon class="cls-1" points="969.28 695.92 969.88 696.52 683.01 980.46 644.76 1024.76 644.11 1024.2 682.39 979.88 969.28 695.92"/><polygon class="cls-1" points="964.84 691.49 965.44 692.09 679.57 977.02 630.83 1040.47 630.15 1039.96 678.94 976.46 964.84 691.49"/><polygon class="cls-1" points="961.01 687.66 676.08 973.53 612.54 1022.35 612.02 1021.67 675.52 972.89 960.41 687.05 961.01 687.66"/><polygon class="cls-1" points="956.58 683.22 672.65 970.09 628.29 1008.38 627.73 1007.74 672.06 969.47 955.97 682.62 956.58 683.22"/><polygon class="cls-1" points="952.15 678.79 669.3 966.74 642.74 993.93 642.13 993.34 668.69 966.15 951.54 678.19 952.15 678.79"/><path d="M886.84,397.76c-3.38,7.08-5.44,14.71-6.21,22.52-1.1,11.1-3.88,28.75-10.93,43.96,15.21-7.05,32.86-9.84,43.96-10.93,7.81-.77,15.43-2.84,22.52-6.21l252.84-120.5c13.42-6.4,8.13-26.62-6.7-25.63l-135.69,9.09c-12.9.86-23.61-9.84-22.74-22.74l9.09-135.69c.99-14.84-19.23-20.13-25.63-6.7l-120.5,252.84Z"/><path class="cls-1" d="M995.77,188.37l19.61,75.4c1.18,4.53-.13,9.34-3.44,12.65l-63.89,63.89,15.87,15.87-52.59,52.59-16.73-16.73c-.48-.48-.59-1.2-.3-1.8l100.22-201.99c.28-.55,1.09-.47,1.25.13Z"/><path d="M655.72,616.48h6.2c1.05,0,1.89.85,1.89,1.89v9.76c0,1.05-.85,1.89-1.89,1.89h-6.2c-.32,0-.58-.26-.58-.58v-12.39c0-.32.26-.58.58-.58Z" transform="translate(903.73 1497.14) rotate(-149)"/><rect x="658.34" y="625.35" width="15.88" height="3.97" transform="translate(914.28 1508.23) rotate(-149)"/><path d="M645.78,633.08h6.2c1.05,0,1.89.85,1.89,1.89v9.76c0,1.05-.85,1.89-1.89,1.89h-6.2c-.32,0-.58-.26-.58-.58v-12.39c0-.32.26-.58.58-.58Z" transform="translate(876.75 1522.85) rotate(-149)"/><rect x="648.4" y="641.96" width="15.88" height="3.97" transform="translate(887.28 1533.95) rotate(-149)"/><path d="M635.85,649.68h6.2c1.05,0,1.89.85,1.89,1.89v9.76c0,1.05-.85,1.89-1.89,1.89h-6.2c-.32,0-.58-.26-.58-.58v-12.39c0-.32.26-.58.58-.58Z" transform="translate(849.75 1548.57) rotate(-149)"/><rect x="638.47" y="658.56" width="15.88" height="3.97" transform="translate(860.27 1559.67) rotate(-149)"/><path d="M706.92,667.68h6.2c1.05,0,1.89.85,1.89,1.89v9.76c0,1.05-.85,1.89-1.89,1.89h-6.2c-.32,0-.58-.26-.58-.58v-12.39c0-.32.26-.58.58-.58Z" transform="translate(922.76 -282.09) rotate(59)"/><rect x="698.65" y="665.67" width="15.88" height="3.97" transform="translate(914.97 -281.88) rotate(59)"/><path d="M690.32,677.62h6.2c1.05,0,1.89.85,1.89,1.89v9.76c0,1.05-.85,1.89-1.89,1.89h-6.2c-.32,0-.58-.26-.58-.58v-12.39c0-.32.26-.58.58-.58Z" transform="translate(923.25 -263.03) rotate(59)"/><rect x="682.05" y="675.6" width="15.88" height="3.97" transform="translate(915.43 -262.83) rotate(59)"/><path d="M673.72,687.55h6.2c1.05,0,1.89.85,1.89,1.89v9.76c0,1.05-.85,1.89-1.89,1.89h-6.2c-.32,0-.58-.26-.58-.58v-12.39c0-.32.26-.58.58-.58Z" transform="translate(923.71 -243.98) rotate(59)"/><rect x="665.44" y="685.54" width="15.88" height="3.97" transform="translate(915.88 -243.78) rotate(59)"/><polygon points="905.31 402.67 931.26 428.62 724.2 628.48 705.45 609.73 905.31 402.67"/><rect class="cls-1" x="700.49" y="618.66" width="26.51" height="3.06" transform="translate(779.9 1563.42) rotate(-135)"/><path d="M646.19,704.11l71.16-42.95c.71-.43.88-1.34.44-2.05-3.33-5.33-4.64-19.58,4.25-28.47l-9.37-9.37-9.37-9.37c-8.89,8.89-23.14,7.57-28.47,4.25-.7-.44-1.62-.27-2.05.44l-42.95,71.16c-6.43,10.66,5.71,22.8,16.37,16.37Z"/><path class="cls-1" d="M700.29,657.17c2.04-1.22,4.68-.56,5.9,1.47,1.22,2.04.56,4.68-1.47,5.9-2.04,1.22-4.68.56-5.9-1.47-1.22-2.04-.56-4.68,1.47-5.9Z"/><path class="cls-1" d="M683.68,667.1c2.04-1.22,4.68-.56,5.9,1.47,1.22,2.04.56,4.68-1.47,5.9-2.04,1.22-4.68.56-5.9-1.47-1.22-2.04-.56-4.68,1.47-5.9Z"/><path class="cls-1" d="M667.08,677.04c2.04-1.22,4.68-.56,5.9,1.47,1.22,2.04.56,4.68-1.47,5.9-2.04,1.22-4.68.56-5.9-1.47-1.22-2.04-.56-4.68,1.47-5.9Z"/><rect x="912.49" y="376.54" width="31.14" height="58.67" rx="1.5" ry="1.5" transform="translate(-15.17 775.11) rotate(-45)"/><rect class="cls-1" x="900.47" y="392.05" width="55.17" height="27.64" rx="1" ry="1" transform="translate(1297.3 1349.1) rotate(-135)"/><rect x="906.57" y="394.19" width="42.97" height="23.36" rx="1" ry="1" transform="translate(1297.3 1349.1) rotate(-135)"/><rect x="957.31" y="331.72" width="31.14" height="58.67" rx="1.5" ry="1.5" transform="translate(29.65 793.68) rotate(-45)"/><rect class="cls-1" x="945.29" y="347.23" width="55.17" height="27.64" rx="1" ry="1" transform="translate(1405.51 1304.28) rotate(-135)"/><rect x="951.4" y="349.37" width="42.97" height="23.36" rx="1" ry="1" transform="translate(1405.51 1304.28) rotate(-135)"/><path class="cls-1" d="M982.8,310.51l40.62,40.62s2.73.15,5.02-2.14,2.14-5.02,2.14-5.02l-40.62-40.62s-2.73-.15-5.02,2.14c-2.29,2.29-2.14,5.02-2.14,5.02Z"/><rect class="cls-1" x="964.02" y="338.68" width="54.78" height="7.69" rx="1.1" ry="1.1" transform="translate(1510.76 1253.83) rotate(-138.74)"/><path d="M987.26,270.52c3.14-3.14,8.24-3.14,11.38,0s3.14,8.24,0,11.38-8.24,3.14-11.38,0-3.14-8.24,0-11.38Z"/><path d="M984.71,243.94c3.14-3.14,8.24-3.14,11.38,0,3.14,3.14,3.14,8.24,0,11.38-3.14,3.14-8.24,3.14-11.38,0-3.14-3.14-3.14-8.24,0-11.38Z"/><path d="M961.63,263.66c3.14-3.14,8.24-3.14,11.38,0,3.14,3.14,3.14,8.24,0,11.38-3.14,3.14-8.24,3.14-11.38,0s-3.14-8.24,0-11.38Z"/><path class="cls-1" d="M676.76,633.64c1.22-2.04.56-4.68-1.47-5.9-2.04-1.22-4.68-.56-5.9,1.47-1.22,2.04-.56,4.68,1.47,5.9,2.04,1.22,4.68.56,5.9-1.47Z"/><path class="cls-1" d="M666.83,650.25c1.22-2.04.56-4.68-1.47-5.9-2.04-1.22-4.68-.56-5.9,1.47-1.22,2.04-.56,4.68,1.47,5.9,2.04,1.22,4.68.56,5.9-1.47Z"/><path class="cls-1" d="M656.89,666.85c1.22-2.04.56-4.68-1.47-5.9-2.04-1.22-4.68-.56-5.9,1.47-1.22,2.04-.56,4.68,1.47,5.9,2.04,1.22,4.68.56,5.9-1.47Z"/><polygon class="cls-1" points="739.64 613.57 740.38 612.86 721.07 593.55 720.36 594.29 739.64 613.57"/><polygon class="cls-1" points="754.85 598.89 755.58 598.19 735.74 578.35 735.04 579.08 754.85 598.89"/><polygon class="cls-1" points="768.96 585.27 769.7 584.57 749.36 564.23 748.66 564.97 768.96 585.27"/><polygon class="cls-1" points="782.35 572.35 783.08 571.65 762.28 550.85 761.58 551.58 782.35 572.35"/><polygon class="cls-1" points="794.95 560.19 795.68 559.48 774.45 538.25 773.74 538.98 794.95 560.19"/><polygon class="cls-1" points="806.88 548.68 807.61 547.97 785.96 526.32 785.25 527.05 806.88 548.68"/><polygon class="cls-1" points="817.96 537.98 818.69 537.27 796.66 515.24 795.95 515.97 817.96 537.98"/><polygon class="cls-1" points="828.55 527.76 829.28 527.05 806.88 504.65 806.17 505.38 828.55 527.76"/><polygon class="cls-1" points="838.33 518.32 839.06 517.61 816.32 494.87 815.61 495.6 838.33 518.32"/><polygon class="cls-1" points="847.66 509.31 848.39 508.61 825.32 485.54 824.62 486.27 847.66 509.31"/><polygon class="cls-1" points="856.48 500.8 857.22 500.09 833.84 476.71 833.13 477.45 856.48 500.8"/><polygon class="cls-1" points="864.8 492.77 865.54 492.06 841.87 468.39 841.16 469.13 864.8 492.77"/><polygon class="cls-1" points="872.62 485.22 873.35 484.52 849.41 460.58 848.71 461.31 872.62 485.22"/><polygon class="cls-1" points="880.08 478.02 880.81 477.31 856.62 453.12 855.91 453.85 880.08 478.02"/><polygon class="cls-1" points="886.99 471.35 887.72 470.64 863.29 446.21 862.58 446.94 886.99 471.35"/><polygon class="cls-1" points="893.59 464.98 894.33 464.27 869.66 439.6 868.95 440.34 893.59 464.98"/><polygon class="cls-1" points="899.7 459.09 900.43 458.38 875.55 433.5 874.84 434.23 899.7 459.09"/><polygon class="cls-1" points="905.54 453.44 906.28 452.73 881.19 427.65 880.49 428.39 905.54 453.44"/><polygon class="cls-1" points="911.17 448.01 911.9 447.3 886.62 422.03 885.92 422.76 911.17 448.01"/><polygon class="cls-1" points="916.3 443.06 917.03 442.35 891.58 416.9 890.87 417.63 916.3 443.06"/><polygon class="cls-1" points="921.19 438.34 921.92 437.63 896.3 412 895.59 412.74 921.19 438.34"/><polygon class="cls-1" points="900.73 407.41 900.02 408.14 925.79 433.9 926.52 433.2 900.73 407.41"/><path class="cls-1" d="M742.43,579.37l12.13,12.13c.45.45,1.2.38,1.56-.15l5-7.34c.28-.4.22-.95-.12-1.29l-9.79-9.79c-.35-.35-.89-.4-1.29-.12l-7.34,5c-.53.36-.6,1.11-.15,1.56Z"/><path class="cls-1" d="M768.64,553.16l12.13,12.13c.45.45,1.2.38,1.56-.15l5-7.34c.28-.4.22-.95-.12-1.29l-9.79-9.79c-.35-.35-.89-.4-1.29-.12l-7.34,5c-.53.36-.6,1.11-.15,1.56Z"/><path class="cls-1" d="M792.85,528.95l12.13,12.13c.45.45,1.11.47,1.37.05l3.62-5.96c.2-.33.09-.82-.25-1.16l-9.79-9.79c-.35-.35-.83-.45-1.16-.25l-5.96,3.62c-.43.26-.41.92.05,1.37Z"/><path class="cls-1" d="M813.51,508.29l12.13,12.13c.45.45,1.11.47,1.37.05l3.62-5.96c.2-.33.09-.82-.25-1.16l-9.79-9.79c-.35-.35-.83-.45-1.16-.25l-5.96,3.62c-.43.26-.41.92.05,1.37Z"/><path class="cls-1" d="M840.98,480.82l12.13,12.13c.45.45,1.03.55,1.2.21l2.42-4.76c.13-.26-.02-.7-.37-1.05l-9.79-9.79c-.35-.35-.79-.5-1.05-.37l-4.76,2.42c-.34.17-.24.75.21,1.2Z"/><path class="cls-1" d="M863.47,458.33l12.13,12.13c.45.45,1.03.55,1.2.21l2.42-4.76c.13-.26-.02-.7-.37-1.05l-9.79-9.79c-.35-.35-.79-.5-1.05-.37l-4.76,2.42c-.34.17-.24.75.21,1.2Z"/><path class="cls-1" d="M877.47,444.33l12.13,12.13c.45.45.91.67.95.46l.6-2.94c.03-.16-.19-.53-.54-.88l-9.79-9.79c-.35-.35-.71-.57-.88-.54l-2.94.6c-.21.04.01.5.46.95Z"/><path class="cls-1" d="M888.98,432.82l12.13,12.13c.45.45.91.67.95.46l.6-2.94c.03-.16-.19-.53-.54-.88l-9.79-9.79c-.35-.35-.71-.57-.88-.54l-2.94.6c-.21.04.01.5.46.95Z"/><path class="cls-1" d="M899.19,422.61l12.13,12.13c.45.45.91.67.95.46l.6-2.94c.03-.16-.19-.53-.54-.88l-9.79-9.79c-.35-.35-.71-.57-.88-.54l-2.94.6c-.21.04.01.5.46.95Z"/><polygon class="cls-1" points="1017.48 338.64 1018.09 339.26 721.74 630.36 701.64 659.87 700.92 659.38 721.07 629.8 1017.48 338.64"/><polygon class="cls-1" points="1012.92 334.08 1013.53 334.7 718.3 626.91 685.14 669.95 684.45 669.41 717.65 626.33 1012.92 334.08"/><polygon class="cls-1" points="1008.35 329.52 1008.97 330.14 714.77 623.38 668.52 679.89 667.84 679.33 714.12 622.79 1008.35 329.52"/><polygon class="cls-1" points="1004.41 325.58 711.17 619.78 654.63 666.13 654.08 665.45 710.59 619.13 1003.79 324.96 1004.41 325.58"/><polygon class="cls-1" points="999.85 321.01 707.64 616.24 664.89 649.09 664.36 648.4 707.06 615.59 999.23 320.4 999.85 321.01"/><polygon class="cls-1" points="995.29 316.45 704.2 612.8 674.8 632.76 674.3 632.04 703.64 612.13 994.67 315.84 995.29 316.45"/><path d="M704.44,659.69c.64,1.07.29,2.46-.77,3.1-1.07.64-2.46.3-3.1-.77-.64-1.07-.3-2.46.77-3.1,1.07-.64,2.46-.3,3.11.77Z"/><path d="M687.84,669.62c.64,1.07.29,2.46-.77,3.1-1.07.64-2.46.3-3.1-.77-.64-1.07-.3-2.46.77-3.1,1.07-.64,2.46-.3,3.11.77Z"/><path d="M671.23,679.56c.64,1.07.29,2.46-.77,3.1-1.07.64-2.46.3-3.1-.77-.64-1.07-.3-2.46.77-3.1,1.07-.64,2.46-.3,3.11.77Z"/><path d="M674.24,629.49c-1.07-.64-2.46-.29-3.1.77-.64,1.07-.3,2.46.77,3.1,1.07.64,2.46.3,3.1-.77.64-1.07.3-2.46-.77-3.11Z"/><path d="M664.31,646.09c-1.07-.64-2.46-.29-3.1.77-.64,1.07-.3,2.46.77,3.1,1.07.64,2.46.3,3.1-.77.64-1.07.3-2.46-.77-3.11Z"/><path d="M654.37,662.7c-1.07-.64-2.46-.29-3.1.77-.64,1.07-.3,2.46.77,3.1,1.07.64,2.46.3,3.1-.77.64-1.07.3-2.46-.77-3.11Z"/><path d="M155.95,517.15c20.31-20.31,43.92-14.2,61.08-31.36,10.29-10.29,11.6-19.44,11.51-23.84-.02-1.13-1.38-1.69-2.21-.92-8.16,7.65-37.79,32.52-58.94,11.38-10.5-10.5-12.79-25.23,8.51-46.53l3.41-26.89s-39.25,12.29-51.73-.2c-20.01-20.01,12.02-52.48,26.94-65.7,2.58-2.28.75-6.48-2.68-6.23-8.99.67-22.98,4.17-36.39,17.59-15.21,15.21-36.91,60.5-46.69,70.29-30.71,30.71-58.66,13.27-93.67,48.29-20.31,20.31-29.06,59.88-.1,88.84l25.73,25.73,30.35,30.35c22.81,22.81,58.08,21.15,73.93,5.3,42.44-42.44,30.43-75.55,50.97-96.1Z"/><path d="M343.65,181.73h6.2c1.05,0,1.89.85,1.89,1.89v9.76c0,1.05-.85,1.89-1.89,1.89h-6.2c-.32,0-.58-.26-.58-.58v-12.39c0-.32.26-.58.58-.58Z" transform="translate(347.5 583.77) rotate(-118.5)"/><rect x="343.26" y="193.5" width="15.88" height="3.97" transform="translate(346.97 597.4) rotate(-118.5)"/><path d="M356.79,174.44h6.2c1.05,0,1.89.85,1.89,1.89v9.76c0,1.05-.85,1.89-1.89,1.89h-6.2c-.32,0-.58-.26-.58-.58v-12.39c0-.32.26-.58.58-.58Z" transform="translate(373.33 584.53) rotate(-118.5)"/><rect x="356.39" y="186.2" width="15.88" height="3.97" transform="translate(372.78 598.16) rotate(-118.5)"/><path d="M369.92,167.14h6.2c1.05,0,1.89.85,1.89,1.89v9.76c0,1.05-.85,1.89-1.89,1.89h-6.2c-.32,0-.58-.26-.58-.58v-12.39c0-.32.26-.58.58-.58Z" transform="translate(399.14 585.29) rotate(-118.5)"/><rect x="369.52" y="178.91" width="15.88" height="3.97" transform="translate(398.6 598.93) rotate(-118.5)"/><path d="M383.05,159.85h6.2c1.05,0,1.89.85,1.89,1.89v9.76c0,1.05-.85,1.89-1.89,1.89h-6.2c-.32,0-.58-.26-.58-.58v-12.39c0-.32.26-.58.58-.58Z" transform="translate(424.94 586.06) rotate(-118.5)"/><rect x="382.66" y="171.61" width="15.88" height="3.97" transform="translate(424.41 599.69) rotate(-118.5)"/><path d="M396.19,152.55h6.2c1.05,0,1.89.85,1.89,1.89v9.76c0,1.05-.85,1.89-1.89,1.89h-6.2c-.32,0-.58-.26-.58-.58v-12.39c0-.32.26-.58.58-.58Z" transform="translate(450.75 586.82) rotate(-118.5)"/><rect x="395.79" y="164.31" width="15.88" height="3.97" transform="translate(450.22 600.46) rotate(-118.5)"/><path d="M409.32,145.25h6.2c1.05,0,1.89.85,1.89,1.89v9.76c0,1.05-.85,1.89-1.89,1.89h-6.2c-.32,0-.58-.26-.58-.58v-12.39c0-.32.26-.58.58-.58Z" transform="translate(476.58 587.59) rotate(-118.5)"/><rect x="408.93" y="157.02" width="15.88" height="3.97" transform="translate(476.04 601.22) rotate(-118.5)"/><polygon points="153.98 450.58 128.03 424.62 335.1 224.76 353.85 243.51 153.98 450.58"/><rect x="332.3" y="231.53" width="26.51" height="3.06" transform="translate(266.01 -176.08) rotate(45)"/><path d="M422.56,156.23l-76.17,42.63c-.96.53-1.47,1.64-1.22,2.71,1.89,8.37-.37,13.5-7.9,21.04l9.37,9.37,9.37,9.37c10.74-10.74,19.54-14.19,26.8-13.14.91.13,1.8-.33,2.29-1.11,2.75-4.37,8.86-15.34,18.46-24.94,10.51-10.51,30.07-29.12,38.32-36.95,1.48-1.4.6-3.89-1.43-4.06l-9.25-.76c-1.49-.12-2.8-1.05-3.41-2.42h0c-.9-2-3.32-2.81-5.23-1.73Z"/><path class="cls-1" d="M95.04,518.66l-35.54-35.54c-1.42-1.42-3.71-1.42-5.13,0l-13.56,13.56c-1.42,1.42-1.42,3.71,0,5.13h0c1.42,1.42,1.42,3.71,0,5.13l-8.32,8.32c-1.42,1.42-1.42,3.71,0,5.13l25.29,25.29c1.42,1.42,3.71,1.42,5.13,0l8.32-8.32c1.42-1.42,3.71-1.42,5.13,0h0c1.42,1.42,3.71,1.42,5.13,0l13.56-13.56c1.42-1.42,1.42-3.71,0-5.13Z"/><path d="M33.22,519.65c-1.02-1.02-1.02-2.67,0-3.69l8.32-8.32c1.81-1.81,1.81-4.76,0-6.57-1.02-1.02-1.02-2.67,0-3.69l13.56-13.56c1.02-1.02,2.67-1.02,3.68,0l35.54,35.54c1.02,1.02,1.02,2.67,0,3.68l-13.56,13.56c-1.02,1.02-2.67,1.02-3.69,0-1.81-1.81-4.76-1.81-6.57,0l-8.32,8.32c-1.02,1.02-2.67,1.02-3.69,0l-25.29-25.29Z"/><path class="cls-1" d="M33.94,518.93c-.62-.62-.62-1.63,0-2.25l8.32-8.32c2.21-2.21,2.21-5.8,0-8.01-.62-.62-.62-1.63,0-2.24l13.56-13.56c.62-.62,1.63-.62,2.24,0l35.54,35.54c.62.62.62,1.63,0,2.24l-13.56,13.56c-.62.62-1.63.62-2.25,0-2.21-2.21-5.8-2.21-8.01,0l-8.32,8.32c-.62.62-1.63.62-2.25,0l-25.29-25.29Z"/><path class="cls-1" d="M357.03,206.24c-2.09,1.13-4.7.36-5.83-1.73-1.13-2.09-.36-4.7,1.73-5.83,2.09-1.13,4.7-.36,5.83,1.73,1.13,2.09.36,4.7-1.73,5.83Z"/><path class="cls-1" d="M370.17,198.94c-2.09,1.13-4.7.36-5.83-1.73-1.13-2.09-.36-4.7,1.73-5.83,2.09-1.13,4.7-.36,5.83,1.73,1.13,2.09.36,4.7-1.73,5.83Z"/><path class="cls-1" d="M383.3,191.65c-2.09,1.13-4.7.36-5.83-1.73-1.13-2.09-.36-4.7,1.73-5.83,2.09-1.13,4.7-.36,5.83,1.73,1.13,2.09.36,4.7-1.73,5.83Z"/><path class="cls-1" d="M396.43,184.35c-2.09,1.13-4.7.36-5.83-1.73-1.13-2.09-.36-4.7,1.73-5.83,2.09-1.13,4.7-.36,5.83,1.73,1.13,2.09.36,4.7-1.73,5.83Z"/><path class="cls-1" d="M409.57,177.05c-2.09,1.13-4.7.36-5.83-1.73-1.13-2.09-.36-4.7,1.73-5.83,2.09-1.13,4.7-.36,5.83,1.73,1.13,2.09.36,4.7-1.73,5.83Z"/><path class="cls-1" d="M422.7,169.76c-2.09,1.13-4.7.36-5.83-1.73-1.13-2.09-.36-4.7,1.73-5.83,2.09-1.13,4.7-.36,5.83,1.73,1.13,2.09.36,4.7-1.73,5.83Z"/><rect class="cls-1" x="99.33" y="437.87" width="55.17" height="27.64" rx="1" ry="1" transform="translate(356.57 42.56) rotate(45)"/><rect x="109.56" y="441.72" width="42.97" height="11.68" rx="1.67" ry="1.67" transform="translate(354.86 38.43) rotate(45)"/><rect x="101.3" y="449.98" width="42.97" height="11.68" rx="1.67" ry="1.67" transform="translate(358.28 46.69) rotate(45)"/><rect class="cls-1" x="61.71" y="475.49" width="55.17" height="27.64" rx="1" ry="1" transform="translate(372.15 80.17) rotate(45)"/><rect x="71.94" y="479.34" width="42.97" height="11.68" rx="1.67" ry="1.67" transform="translate(370.44 76.04) rotate(45)"/><rect x="63.68" y="487.6" width="42.97" height="11.68" rx="1.67" ry="1.67" transform="translate(373.86 84.3) rotate(45)"/><path class="cls-1" d="M121,546.07c-3.14,3.14-8.24,3.14-11.38,0-3.14-3.14-3.14-8.24,0-11.38,3.14-3.14,8.24-3.14,11.38,0,3.14,3.14,3.14,8.24,0,11.38Z"/><path class="cls-1" d="M97.14,581.3c-3.14,3.14-8.24,3.14-11.38,0s-3.14-8.24,0-11.38,8.24-3.14,11.38,0,3.14,8.24,0,11.38Z"/><path class="cls-1" d="M121.83,438.34c-.8.8-2.1.8-2.91,0s-.8-2.1,0-2.91,2.1-.8,2.91,0,.8,2.1,0,2.91Z"/><path class="cls-1" d="M126.1,442.61c-.8.8-2.1.8-2.91,0s-.8-2.1,0-2.91,2.1-.8,2.91,0,.8,2.1,0,2.91Z"/><path class="cls-1" d="M130.36,446.88c-.8.8-2.1.8-2.91,0s-.8-2.1,0-2.91,2.1-.8,2.91,0,.8,2.1,0,2.91Z"/><path class="cls-1" d="M134.63,451.15c-.8.8-2.1.8-2.91,0s-.8-2.1,0-2.91,2.1-.8,2.91,0,.8,2.1,0,2.91Z"/><path class="cls-1" d="M138.9,455.42c-.8.8-2.1.8-2.91,0s-.8-2.1,0-2.91,2.1-.8,2.91,0,.8,2.1,0,2.91Z"/><path class="cls-1" d="M143.17,459.69c-.8.8-2.1.8-2.91,0s-.8-2.1,0-2.91,2.1-.8,2.91,0,.8,2.1,0,2.91Z"/><path class="cls-1" d="M113.57,446.6c-.8.8-2.1.8-2.91,0s-.8-2.1,0-2.91,2.1-.8,2.91,0,.8,2.1,0,2.91Z"/><path class="cls-1" d="M117.84,450.87c-.8.8-2.1.8-2.91,0s-.8-2.1,0-2.91,2.1-.8,2.91,0,.8,2.1,0,2.91Z"/><path class="cls-1" d="M122.1,455.14c-.8.8-2.1.8-2.91,0s-.8-2.1,0-2.91,2.1-.8,2.91,0,.8,2.1,0,2.91Z"/><path class="cls-1" d="M126.37,459.41c-.8.8-2.1.8-2.91,0s-.8-2.1,0-2.91,2.1-.8,2.91,0,.8,2.1,0,2.91Z"/><path class="cls-1" d="M130.64,463.68c-.8.8-2.1.8-2.91,0s-.8-2.1,0-2.91,2.1-.8,2.91,0,.8,2.1,0,2.91Z"/><circle class="cls-1" cx="133.46" cy="466.5" r="2.06"/><path class="cls-1" d="M84.21,475.96c-.8.8-2.1.8-2.91,0s-.8-2.1,0-2.91,2.1-.8,2.91,0,.8,2.1,0,2.91Z"/><path class="cls-1" d="M88.48,480.23c-.8.8-2.1.8-2.91,0s-.8-2.1,0-2.91,2.1-.8,2.91,0,.8,2.1,0,2.91Z"/><path class="cls-1" d="M92.75,484.5c-.8.8-2.1.8-2.91,0s-.8-2.1,0-2.91,2.1-.8,2.91,0,.8,2.1,0,2.91Z"/><path class="cls-1" d="M97.02,488.77c-.8.8-2.1.8-2.91,0s-.8-2.1,0-2.91,2.1-.8,2.91,0,.8,2.1,0,2.91Z"/><path class="cls-1" d="M101.28,493.04c-.8.8-2.1.8-2.91,0s-.8-2.1,0-2.91,2.1-.8,2.91,0,.8,2.1,0,2.91Z"/><path class="cls-1" d="M105.55,497.31c-.8.8-2.1.8-2.91,0s-.8-2.1,0-2.91,2.1-.8,2.91,0,.8,2.1,0,2.91Z"/><rect class="cls-1" x="80.52" y="462.57" width="55.17" height="15.86" rx="1" ry="1" transform="translate(364.36 61.36) rotate(45)"/><rect x="86.62" y="464.66" width="42.97" height="11.68" rx="1.67" ry="1.67" transform="translate(364.36 61.36) rotate(45)"/><path class="cls-1" d="M98.85,461.32c-.8.8-2.1.8-2.91,0s-.8-2.1,0-2.91,2.1-.8,2.91,0,.8,2.1,0,2.91Z"/><path class="cls-1" d="M103.12,465.59c-.8.8-2.1.8-2.91,0s-.8-2.1,0-2.91,2.1-.8,2.91,0,.8,2.1,0,2.91Z"/><path class="cls-1" d="M107.39,469.86c-.8.8-2.1.8-2.91,0s-.8-2.1,0-2.91,2.1-.8,2.91,0,.8,2.1,0,2.91Z"/><path class="cls-1" d="M111.66,474.13c-.8.8-2.1.8-2.91,0s-.8-2.1,0-2.91,2.1-.8,2.91,0,.8,2.1,0,2.91Z"/><path class="cls-1" d="M115.93,478.39c-.8.8-2.1.8-2.91,0s-.8-2.1,0-2.91,2.1-.8,2.91,0,.8,2.1,0,2.91Z"/><path class="cls-1" d="M120.2,482.66c-.8.8-2.1.8-2.91,0s-.8-2.1,0-2.91,2.1-.8,2.91,0,.8,2.1,0,2.91Z"/><path class="cls-1" d="M75.95,484.22c-.8.8-2.1.8-2.91,0s-.8-2.1,0-2.91,2.1-.8,2.91,0,.8,2.1,0,2.91Z"/><path class="cls-1" d="M80.22,488.49c-.8.8-2.1.8-2.91,0s-.8-2.1,0-2.91,2.1-.8,2.91,0,.8,2.1,0,2.91Z"/><path class="cls-1" d="M84.49,492.76c-.8.8-2.1.8-2.91,0s-.8-2.1,0-2.91,2.1-.8,2.91,0,.8,2.1,0,2.91Z"/><path class="cls-1" d="M88.76,497.03c-.8.8-2.1.8-2.91,0s-.8-2.1,0-2.91,2.1-.8,2.91,0,.8,2.1,0,2.91Z"/><path class="cls-1" d="M93.02,501.3c-.8.8-2.1.8-2.91,0s-.8-2.1,0-2.91,2.1-.8,2.91,0,.8,2.1,0,2.91Z"/><path class="cls-1" d="M97.29,505.57c-.8.8-2.1.8-2.91,0s-.8-2.1,0-2.91,2.1-.8,2.91,0,.8,2.1,0,2.91Z"/><rect x="45.03" y="507.63" width="42.97" height="8.93" transform="translate(381.59 102.96) rotate(45)"/><rect x="40.84" y="506.97" width="2.07" height="13.01" transform="translate(375.35 120.79) rotate(45)"/><rect x="45.4" y="511.53" width="2.07" height="13.01" transform="translate(379.91 118.9) rotate(45)"/><rect x="49.96" y="516.1" width="2.07" height="13.01" transform="translate(384.47 117.01) rotate(45)"/><rect x="54.52" y="520.66" width="2.07" height="13.01" transform="translate(389.03 115.12) rotate(45)"/><rect x="59.08" y="525.22" width="2.07" height="13.01" transform="translate(393.59 113.23) rotate(45)"/><rect x="63.64" y="529.78" width="2.07" height="13.01" transform="translate(398.15 111.34) rotate(45)"/><polygon class="cls-1" points="319.65 239.67 318.92 240.38 338.23 259.69 338.94 258.96 319.65 239.67"/><polygon class="cls-1" points="304.45 254.35 303.71 255.06 323.55 274.9 324.26 274.16 304.45 254.35"/><polygon class="cls-1" points="290.33 267.97 289.6 268.68 309.93 289.01 310.64 288.28 290.33 267.97"/><polygon class="cls-1" points="276.95 280.89 276.21 281.6 297.01 302.39 297.72 301.66 276.95 280.89"/><polygon class="cls-1" points="264.35 293.05 263.61 293.76 284.85 315 285.56 314.26 264.35 293.05"/><polygon class="cls-1" points="252.42 304.56 251.69 305.27 273.34 326.92 274.04 326.19 252.42 304.56"/><polygon class="cls-1" points="241.34 315.26 240.6 315.97 262.64 338.01 263.35 337.27 241.34 315.26"/><polygon class="cls-1" points="230.75 325.48 230.01 326.19 252.42 348.59 253.13 347.86 230.75 325.48"/><polygon class="cls-1" points="220.97 334.92 220.23 335.63 242.98 358.38 243.68 357.64 220.97 334.92"/><polygon class="cls-1" points="211.64 343.93 210.9 344.64 233.97 367.7 234.68 366.97 211.64 343.93"/><polygon class="cls-1" points="202.81 352.44 202.08 353.15 225.46 376.53 226.16 375.8 202.81 352.44"/><polygon class="cls-1" points="194.49 360.48 193.76 361.18 217.43 384.85 218.13 384.12 194.49 360.48"/><polygon class="cls-1" points="186.68 368.02 185.94 368.73 209.88 392.66 210.59 391.93 186.68 368.02"/><polygon class="cls-1" points="179.22 375.22 178.48 375.93 202.68 400.13 203.39 399.39 179.22 375.22"/><polygon class="cls-1" points="172.31 381.89 171.57 382.6 196.01 407.04 196.72 406.3 172.31 381.89"/><polygon class="cls-1" points="165.7 388.27 164.97 388.97 189.64 413.64 190.34 412.91 165.7 388.27"/><polygon class="cls-1" points="159.6 394.15 158.87 394.86 183.75 419.74 184.45 419.01 159.6 394.15"/><polygon class="cls-1" points="153.75 399.8 153.02 400.51 178.1 425.59 178.81 424.86 153.75 399.8"/><polygon class="cls-1" points="148.13 405.23 147.39 405.94 172.67 431.22 173.38 430.48 148.13 405.23"/><polygon class="cls-1" points="143 410.18 142.26 410.89 167.72 436.34 168.43 435.61 143 410.18"/><polygon class="cls-1" points="138.1 414.9 137.37 415.61 163 441.24 163.71 440.5 138.1 414.9"/><polygon class="cls-1" points="158.56 445.83 159.27 445.1 133.51 419.34 132.78 420.05 158.56 445.83"/><path class="cls-1" d="M282.11,299.15c-.73.73-1.92.73-2.65,0s-.73-1.92,0-2.65,1.92-.73,2.65,0,.73,1.92,0,2.65Z"/><path class="cls-1" d="M308.38,272.87c-.73.73-1.92.73-2.65,0s-.73-1.92,0-2.65,1.92-.73,2.65,0,.73,1.92,0,2.65Z"/><path class="cls-1" d="M258.75,322.51c-.73.73-1.92.73-2.65,0s-.73-1.92,0-2.65,1.92-.73,2.65,0,.73,1.92,0,2.65Z"/><path class="cls-1" d="M238.09,343.16c-.73.73-1.92.73-2.65,0s-.73-1.92,0-2.65,1.92-.73,2.65,0,.73,1.92,0,2.65Z"/><path class="cls-1" d="M188.87,392.39c-.73.73-1.92.73-2.65,0s-.73-1.92,0-2.65,1.92-.73,2.65,0,.73,1.92,0,2.65Z"/><path class="cls-1" d="M175.99,405.27c-.73.73-1.92.73-2.65,0s-.73-1.92,0-2.65,1.92-.73,2.65,0,.73,1.92,0,2.65Z"/><path class="cls-1" d="M164.48,416.78c-.73.73-1.92.73-2.65,0s-.73-1.92,0-2.65,1.92-.73,2.65,0,.73,1.92,0,2.65Z"/><path class="cls-1" d="M154.27,426.98c-.73.73-1.92.73-2.65,0s-.73-1.92,0-2.65,1.92-.73,2.65,0,.73,1.92,0,2.65Z"/><path class="cls-1" d="M204.16,362.69c-.73.73-1.92.73-2.65,0s-.73-1.92,0-2.65,1.92-.73,2.65,0,.73,1.92,0,2.65Z"/><path class="cls-1" d="M218.57,377.1c-.73.73-1.92.73-2.65,0s-.73-1.92,0-2.65,1.92-.73,2.65,0,.73,1.92,0,2.65Z"/><polygon class="cls-1" points="55.38 501.04 54.77 500.41 337.55 222.89 355.86 203.36 356.5 203.96 338.18 223.5 55.38 501.04"/><polygon class="cls-1" points="59.95 505.6 59.33 504.97 340.99 226.33 368.94 196.12 369.59 196.71 341.62 226.94 59.95 505.6"/><polygon class="cls-1" points="64.51 510.16 63.89 509.54 344.53 229.87 382.15 188.8 382.79 189.39 345.16 230.47 64.51 510.16"/><polygon class="cls-1" points="68.45 514.1 348.12 233.46 395.29 181.51 395.94 182.1 348.76 234.07 69.07 514.72 68.45 514.1"/><polygon class="cls-1" points="73.01 518.66 351.66 237 408.41 174.21 409.06 174.79 352.29 237.6 73.63 519.28 73.01 518.66"/><polygon class="cls-1" points="77.57 523.23 355.1 240.44 421.56 166.92 422.21 167.51 355.74 241.04 78.2 523.84 77.57 523.23"/><path d="M352.99,203.54c-.6-1.1-.19-2.47.91-3.07,1.1-.6,2.47-.19,3.07.91.6,1.1.19,2.47-.91,3.07-1.1.6-2.47.19-3.07-.91Z"/><path d="M366.13,196.24c-.6-1.1-.19-2.47.91-3.07,1.1-.6,2.47-.19,3.07.91.6,1.1.19,2.47-.91,3.07-1.1.6-2.47.19-3.07-.91Z"/><path d="M379.26,188.95c-.6-1.1-.19-2.47.91-3.07,1.1-.6,2.47-.19,3.07.91.6,1.1.19,2.47-.91,3.07-1.1.6-2.47.19-3.07-.91Z"/><path d="M392.39,181.65c-.6-1.1-.19-2.47.91-3.07,1.1-.6,2.47-.19,3.07.91.6,1.1.19,2.47-.91,3.07-1.1.6-2.47.19-3.07-.91Z"/><path d="M405.53,174.36c-.6-1.1-.19-2.47.91-3.07,1.1-.6,2.47-.19,3.07.91.6,1.1.19,2.47-.91,3.07-1.1.6-2.47.19-3.07-.91Z"/><path d="M418.66,167.06c-.6-1.1-.19-2.47.91-3.07,1.1-.6,2.47-.19,3.07.91.6,1.1.19,2.47-.91,3.07-1.1.6-2.47.19-3.07-.91Z"/><path d="M1355.95,517.15c20.31-20.31,43.92-14.2,61.08-31.36,10.29-10.29,11.6-19.44,11.51-23.84-.02-1.13-1.38-1.69-2.21-.92-8.16,7.65-37.79,32.52-58.94,11.38-10.5-10.5-12.79-25.23,8.51-46.53l3.41-26.89s-39.25,12.29-51.73-.2c-20.01-20.01,12.02-52.48,26.94-65.7,2.58-2.28.75-6.48-2.68-6.23-8.99.67-22.98,4.17-36.39,17.59-15.21,15.21-36.91,60.5-46.69,70.29-30.71,30.71-58.66,13.27-93.67,48.29-20.31,20.31-29.06,59.88-.1,88.84l25.73,25.73,30.35,30.35c22.81,22.81,58.08,21.15,73.93,5.3,42.44-42.44,30.43-75.55,50.97-96.1Z"/><path d="M61.91,929.39c10.25-10.25,31.37-8.32,46.59-23.54,5.29-5.29,10.22-11.73,4.7-17.25-5.3-5.3-14.32,7.96-30.1-7.82-8.88-8.88-3.89-24.04,1.42-29.35l3.57-28.16-20.41-20.41c-17.17-17.17-45-17.17-62.17,0-15.22,15.22-13.29,36.34-23.54,46.59-18.21,18.21-54.65-6.34-96.69,36.18-30,30.34-29.67,79.3.5,109.47l15.24,15.24,15.24,15.24c30.17,30.17,79.13,30.49,109.47.5,42.52-42.04,17.97-78.48,36.18-96.69Z"/><path class="cls-1" d="M38.73,969.31c-3.55,3.55-9.31,3.55-12.87,0h0c-7.43-7.43-25.38-30.92-25.38-30.92l72.73-75.87s4.46,14.69.49,25.82c-2.84,7.97-30.37,76.38-34.93,80.94l-.03.03Z"/><path d="M315.75,627.63h6.2c1.05,0,1.89.85,1.89,1.89v9.76c0,1.05-.85,1.89-1.89,1.89h-6.2c-.32,0-.58-.26-.58-.58v-12.39c0-.32.26-.58.58-.58Z" transform="translate(542.17 -40.11) rotate(45)"/><rect x="309.4" y="628.23" width="11.83" height="3.97" transform="translate(537.99 -38.38) rotate(45)"/><path d="M330.89,612.49h6.2c1.05,0,1.89.85,1.89,1.89v9.76c0,1.05-.85,1.89-1.89,1.89h-6.2c-.32,0-.58-.26-.58-.58v-12.39c0-.32.26-.58.58-.58Z" transform="translate(535.9 -55.25) rotate(45)"/><rect x="324.54" y="613.1" width="11.83" height="3.97" transform="translate(531.72 -53.52) rotate(45)"/><path d="M300.61,642.77h6.2c1.05,0,1.89.85,1.89,1.89v9.76c0,1.05-.85,1.89-1.89,1.89h-6.2c-.32,0-.58-.26-.58-.58v-12.39c0-.32.26-.58.58-.58Z" transform="translate(548.44 -24.97) rotate(45)"/><rect x="294.26" y="643.37" width="11.83" height="3.97" transform="translate(544.26 -23.24) rotate(45)"/><polygon points="62.55 874.76 36.6 848.81 243.66 648.95 262.41 667.69 62.55 874.76"/><rect class="cls-1" x="240.86" y="655.71" width="26.51" height="3.06" transform="translate(539.17 12.81) rotate(45)"/><path d="M343.32,601.6c.62-.59.41-1.62-.39-1.93-1.67-.64-3.92-1.75-4.67-2.5-2.54-2.54-4.08-10.25-6.61-12.77l-2.35-2.35-74.1,74.1,9.61,9.61c8.38-8.38,15.67-9.44,18.94-9.41,1.29.01,2.52-.5,3.46-1.39,0,0,18.45-19.99,26.02-27.56,8.96-8.96,30.08-25.81,30.08-25.81Z"/><path d="M273.2,585.08h6.2c1.05,0,1.89.85,1.89,1.89v9.76c0,1.05-.85,1.89-1.89,1.89h-6.2c-.32,0-.58-.26-.58-.58v-12.39c0-.32.26-.58.58-.58Z" transform="translate(54.28 1206.2) rotate(-135)"/><rect x="275.22" y="594.05" width="11.83" height="3.97" transform="translate(58.47 1216.3) rotate(-135)"/><path d="M288.34,569.94h6.2c1.05,0,1.89.85,1.89,1.89v9.76c0,1.05-.85,1.89-1.89,1.89h-6.2c-.32,0-.58-.26-.58-.58v-12.39c0-.32.26-.58.58-.58Z" transform="translate(90.83 1191.06) rotate(-135)"/><rect x="290.36" y="578.91" width="11.83" height="3.97" transform="translate(95.02 1201.16) rotate(-135)"/><path d="M258.06,600.22h6.2c1.05,0,1.89.85,1.89,1.89v9.76c0,1.05-.85,1.89-1.89,1.89h-6.2c-.32,0-.58-.26-.58-.58v-12.39c0-.32.26-.58.58-.58Z" transform="translate(17.74 1221.34) rotate(-135)"/><rect x="260.08" y="609.19" width="11.83" height="3.97" transform="translate(21.92 1231.44) rotate(-135)"/><path d="M309.76,568.04c.59-.62,1.62-.41,1.93.39.64,1.67,1.75,3.92,2.5,4.67,2.54,2.54,10.25,4.08,12.77,6.61l2.35,2.35-74.1,74.1-9.61-9.61c8.38-8.38,9.44-15.67,9.41-18.94-.01-1.29.5-2.52,1.39-3.46,0,0,19.99-18.45,27.56-26.02,8.96-8.96,25.81-30.08,25.81-30.08Z"/><rect x="24.24" y="842.22" width="31.14" height="58.67" rx="1.5" ry="1.5" transform="translate(684.23 1459.69) rotate(135)"/><rect class="cls-1" x="12.22" y="857.74" width="55.17" height="27.64" rx="1" ry="1" transform="translate(627.94 227.13) rotate(45)"/><rect x="18.32" y="859.87" width="42.97" height="23.36" rx="1" ry="1" transform="translate(627.94 227.13) rotate(45)"/><rect x="-20.58" y="887.04" width="31.14" height="58.67" rx="1.5" ry="1.5" transform="translate(639.41 1567.9) rotate(135)"/><rect class="cls-1" x="-32.6" y="902.56" width="55.17" height="27.64" rx="1" ry="1" transform="translate(646.51 271.95) rotate(45)"/><rect x="-26.5" y="904.69" width="42.97" height="23.36" rx="1" ry="1" transform="translate(646.51 271.95) rotate(45)"/><circle class="cls-1" cx="302.01" cy="587.41" r="4.3" transform="translate(-324.85 379.32) rotate(-44.43)"/><circle class="cls-1" cx="287.66" cy="603.6" r="4.3" transform="translate(-302.2 288.71) rotate(-36.42)"/><circle class="cls-1" cx="272.81" cy="618.45" r="4.3"/><circle class="cls-1" cx="323.95" cy="609.35" r="4.3"/><circle class="cls-1" cx="307.76" cy="623.7" r="4.3" transform="translate(-376.84 501.02) rotate(-53.58)"/><circle class="cls-1" cx="292.91" cy="638.55" r="4.3"/><polygon class="cls-1" points="228.22 663.85 227.49 664.56 246.8 683.87 247.51 683.14 228.22 663.85"/><polygon class="cls-1" points="213.01 678.53 212.28 679.24 232.12 699.08 232.83 698.35 213.01 678.53"/><polygon class="cls-1" points="198.9 692.15 198.17 692.86 218.5 713.19 219.21 712.46 198.9 692.15"/><polygon class="cls-1" points="185.52 705.07 184.78 705.78 205.58 726.58 206.29 725.84 185.52 705.07"/><polygon class="cls-1" points="172.91 717.24 172.18 717.94 193.42 739.18 194.12 738.45 172.91 717.24"/><polygon class="cls-1" points="160.99 728.75 160.25 729.45 181.9 751.1 182.61 750.37 160.99 728.75"/><polygon class="cls-1" points="149.9 739.44 149.17 740.15 171.21 762.19 171.91 761.45 149.9 739.44"/><polygon class="cls-1" points="139.32 749.67 138.58 750.37 160.99 772.78 161.69 772.04 139.32 749.67"/><polygon class="cls-1" points="129.53 759.11 128.8 759.81 151.55 782.56 152.25 781.83 129.53 759.11"/><polygon class="cls-1" points="120.21 768.11 119.47 768.82 142.54 791.89 143.25 791.15 120.21 768.11"/><polygon class="cls-1" points="111.38 776.63 110.65 777.33 134.02 800.71 134.73 799.98 111.38 776.63"/><polygon class="cls-1" points="103.06 784.66 102.33 785.37 125.99 809.03 126.7 808.3 103.06 784.66"/><polygon class="cls-1" points="95.25 792.2 94.51 792.91 118.45 816.85 119.16 816.11 95.25 792.2"/><polygon class="cls-1" points="87.78 799.4 87.05 800.11 111.25 824.31 111.95 823.58 87.78 799.4"/><polygon class="cls-1" points="80.87 806.07 80.14 806.78 104.58 831.22 105.29 830.48 80.87 806.07"/><polygon class="cls-1" points="74.27 812.45 73.54 813.16 98.2 837.82 98.91 837.09 74.27 812.45"/><polygon class="cls-1" points="68.17 818.34 67.44 819.04 92.31 843.92 93.02 843.19 68.17 818.34"/><polygon class="cls-1" points="62.32 823.98 61.59 824.69 86.67 849.77 87.38 849.04 62.32 823.98"/><polygon class="cls-1" points="56.69 829.41 55.96 830.12 81.24 855.4 81.95 854.67 56.69 829.41"/><polygon class="cls-1" points="51.56 834.36 50.83 835.07 76.29 860.53 77 859.79 51.56 834.36"/><polygon class="cls-1" points="46.67 839.09 45.94 839.79 71.57 865.42 72.27 864.69 46.67 839.09"/><polygon class="cls-1" points="67.13 870.01 67.84 869.28 42.08 843.52 41.34 844.23 67.13 870.01"/><path class="cls-1" d="M225.43,698.06l-12.13-12.13c-.45-.45-1.2-.38-1.56.15l-5,7.34c-.28.4-.22.95.12,1.29l9.79,9.79c.35.35.89.4,1.29.12l7.34-5c.53-.36.6-1.11.15-1.56Z"/><path class="cls-1" d="M199.22,724.27l-12.13-12.13c-.45-.45-1.2-.38-1.56.15l-5,7.34c-.28.4-.22.95.12,1.29l9.79,9.79c.35.35.89.4,1.29.12l7.34-5c.53-.36.6-1.11.15-1.56Z"/><path class="cls-1" d="M175.01,748.48l-12.13-12.13c-.45-.45-1.11-.47-1.37-.05l-3.62,5.96c-.2.33-.09.82.25,1.16l9.79,9.79c.35.35.83.45,1.16.25l5.96-3.62c.43-.26.41-.92-.05-1.37Z"/><path class="cls-1" d="M154.36,769.13l-12.13-12.13c-.45-.45-1.11-.47-1.37-.05l-3.62,5.96c-.2.33-.09.82.25,1.16l9.79,9.79c.35.35.83.45,1.16.25l5.96-3.62c.43-.26.41-.92-.04-1.37Z"/><path class="cls-1" d="M126.89,796.6l-12.13-12.13c-.45-.45-1.03-.55-1.2-.21l-2.42,4.76c-.13.26.02.7.37,1.05l9.79,9.79c.35.35.79.5,1.05.37l4.76-2.42c.34-.17.24-.75-.21-1.2Z"/><path class="cls-1" d="M104.39,819.1l-12.13-12.13c-.45-.45-1.03-.55-1.2-.21l-2.42,4.76c-.13.26.02.7.37,1.05l9.79,9.79c.35.35.79.5,1.05.37l4.76-2.42c.34-.17.24-.75-.21-1.2Z"/><path class="cls-1" d="M90.39,833.1l-12.13-12.13c-.45-.45-.91-.67-.95-.46l-.6,2.94c-.03.16.19.53.54.88l9.79,9.79c.35.35.71.57.88.54l2.94-.6c.21-.04-.01-.5-.46-.95Z"/><path class="cls-1" d="M78.88,844.61l-12.13-12.13c-.45-.45-.91-.67-.95-.46l-.6,2.94c-.03.16.19.53.54.88l9.79,9.79c.35.35.71.57.88.54l2.94-.6c.21-.04-.01-.5-.46-.95Z"/><path class="cls-1" d="M68.67,854.82l-12.13-12.13c-.45-.45-.91-.67-.95-.46l-.6,2.94c-.03.16.19.53.54.88l9.79,9.79c.35.35.71.57.88.54l2.94-.6c.21-.04-.01-.5-.46-.95Z"/><polygon class="cls-1" points="-49.62 938.79 -50.23 938.16 246.12 647.07 274.1 619.74 274.71 620.36 246.73 647.69 -49.62 938.79"/><polygon class="cls-1" points="-45.05 943.35 -45.67 942.73 249.56 650.51 288.92 604.92 289.59 605.49 250.2 651.11 -45.05 943.35"/><polygon class="cls-1" points="-40.49 947.91 -41.11 947.29 253.09 654.05 303.26 588.74 303.96 589.28 253.75 654.62 -40.49 947.91"/><polygon class="cls-1" points="-36.55 951.85 256.69 657.65 322.08 607.4 322.62 608.1 257.27 658.3 -35.93 952.47 -36.55 951.85"/><polygon class="cls-1" points="-31.99 956.41 260.23 661.18 305.87 621.77 306.44 622.43 260.82 661.82 -31.37 957.03 -31.99 956.41"/><polygon class="cls-1" points="-27.43 960.98 263.67 664.62 290.99 636.65 291.62 637.26 264.29 665.24 -26.8 961.59 -27.43 960.98"/><path d="M300.41,589.01c-.88-.88-.88-2.32,0-3.2s2.32-.88,3.2,0,.88,2.32,0,3.2-2.32.88-3.2,0Z"/><path d="M286.06,605.2c-.88-.88-.88-2.32,0-3.2s2.32-.88,3.2,0,.88,2.32,0,3.2-2.32.88-3.2,0Z"/><path d="M271.21,620.05c-.88-.88-.88-2.32,0-3.2s2.32-.88,3.2,0,.88,2.32,0,3.2-2.32.88-3.2,0Z"/><path d="M322.35,610.95c-.88-.88-.88-2.32,0-3.2s2.32-.88,3.2,0,.88,2.32,0,3.2-2.32.88-3.2,0Z"/><path d="M306.16,625.3c-.88-.88-.88-2.32,0-3.2s2.32-.88,3.2,0,.88,2.32,0,3.2-2.32.88-3.2,0Z"/><path d="M291.31,640.15c-.88-.88-.88-2.32,0-3.2s2.32-.88,3.2,0,.88,2.32,0,3.2-2.32.88-3.2,0Z"/><path d="M61.91,29.39c10.25-10.25,31.37-8.32,46.59-23.54,5.29-5.29,10.22-11.73,4.7-17.25-5.3-5.3-14.32,7.96-30.1-7.82-8.88-8.88-3.89-24.04,1.42-29.35l3.57-28.16-20.41-20.41c-17.17-17.17-45-17.17-62.17,0-15.22,15.22-13.29,36.34-23.54,46.59-18.21,18.21-54.65-6.34-96.69,36.18-30,30.34-29.67,79.3.5,109.47l15.24,15.24,15.24,15.24c30.17,30.17,79.13,30.49,109.47.5,42.52-42.04,17.97-78.48,36.18-96.69Z"/><path class="cls-1" d="M38.73,69.31c-3.55,3.55-9.31,3.55-12.87,0h0C18.43,61.88.48,38.39.48,38.39L73.2-37.48s4.46,14.69.49,25.82c-2.84,7.97-30.37,76.38-34.93,80.94l-.03.03Z"/><rect x="24.24" y="-57.78" width="31.14" height="58.67" rx="1.5" ry="1.5" transform="translate(47.84 -76.71) rotate(135)"/><rect class="cls-1" x="12.22" y="-42.26" width="55.17" height="27.64" rx="1" ry="1" transform="translate(-8.46 -36.48) rotate(45)"/><rect x="-20.58" y="-12.96" width="31.14" height="58.67" rx="1.5" ry="1.5" transform="translate(3.02 31.5) rotate(135)"/><rect class="cls-1" x="-32.6" y="2.56" width="55.17" height="27.64" rx="1" ry="1" transform="translate(10.11 8.34) rotate(45)"/><rect x="-26.5" y="4.69" width="42.97" height="23.36" rx="1" ry="1" transform="translate(10.11 8.34) rotate(45)"/><path class="cls-1" d="M-1.23,95.4c-3.14,3.14-8.24,3.14-11.38,0s-3.14-8.24,0-11.38,8.24-3.14,11.38,0c3.14,3.14,3.14,8.24,0,11.38Z"/><path class="cls-1" d="M27.9,103.48c-3.14,3.14-8.24,3.14-11.38,0-3.14-3.14-3.14-8.24,0-11.38s8.24-3.14,11.38,0c3.14,3.14,3.14,8.24,0,11.38Z"/><path class="cls-1" d="M3.6,127.78c-3.14,3.14-8.24,3.14-11.38,0s-3.14-8.24,0-11.38c3.14-3.14,8.24-3.14,11.38,0,3.14,3.14,3.14,8.24,0,11.38Z"/><polygon class="cls-1" points="-49.62 38.79 -50.23 38.16 246.12 -252.93 274.1 -280.26 274.71 -279.64 246.73 -252.31 -49.62 38.79"/><polygon class="cls-1" points="-45.05 43.35 -45.67 42.73 249.56 -249.49 288.92 -295.08 289.59 -294.51 250.2 -248.89 -45.05 43.35"/><polygon class="cls-1" points="-40.49 47.91 -41.11 47.29 253.09 -245.95 303.26 -311.26 303.96 -310.72 253.75 -245.38 -40.49 47.91"/><polygon class="cls-1" points="-36.55 51.85 256.69 -242.35 322.08 -292.6 322.62 -291.9 257.27 -241.7 -35.93 52.47 -36.55 51.85"/><polygon class="cls-1" points="-31.99 56.41 260.23 -238.82 305.87 -278.23 306.44 -277.57 260.82 -238.18 -31.37 57.03 -31.99 56.41"/><polygon class="cls-1" points="-27.43 60.98 263.67 -235.38 290.99 -263.35 291.62 -262.74 264.29 -234.76 -26.8 61.59 -27.43 60.98"/><path d="M1265.99,30.49c10.25-10.25,31.37-8.32,46.59-23.54,5.29-5.29,10.22-11.73,4.7-17.25-5.3-5.3-14.32,7.96-30.1-7.82-8.88-8.88-3.89-24.04,1.42-29.35l3.57-28.16-20.41-20.41c-17.17-17.17-45-17.17-62.17,0-15.22,15.22-13.29,36.34-23.54,46.59-18.21,18.21-54.65-6.34-96.69,36.18-30,30.34-29.67,79.3.5,109.47l15.24,15.24,15.24,15.24c30.17,30.17,79.13,30.49,109.47.5,42.52-42.04,17.97-78.48,36.18-96.69Z"/><rect x="1183.49" y="-11.86" width="31.14" height="58.67" rx="1.5" ry="1.5" transform="translate(2059.29 -818.03) rotate(135)"/><rect class="cls-1" x="1171.48" y="3.66" width="55.17" height="27.64" rx="1" ry="1" transform="translate(363.56 -842.75) rotate(45)"/><rect x="1177.58" y="5.8" width="42.97" height="23.36" rx="1" ry="1" transform="translate(363.56 -842.75) rotate(45)"/><path class="cls-1" d="M1189.15,68.02l-40.62-40.62s-2.73-.15-5.02,2.14c-2.29,2.29-2.14,5.02-2.14,5.02l40.62,40.62s2.73.15,5.02-2.14,2.14-5.02,2.14-5.02Z"/><rect class="cls-1" x="1153.15" y="32.16" width="54.78" height="7.69" rx="1.1" ry="1.1" transform="translate(316.86 -769.62) rotate(41.26)"/><path class="cls-1" d="M1202.85,96.5c-3.14,3.14-8.24,3.14-11.38,0s-3.14-8.24,0-11.38,8.24-3.14,11.38,0c3.14,3.14,3.14,8.24,0,11.38Z"/><path class="cls-1" d="M1178.55,120.79c-3.14,3.14-8.24,3.14-11.38,0-3.14-3.14-3.14-8.24,0-11.38s8.24-3.14,11.38,0c3.14,3.14,3.14,8.24,0,11.38Z"/><path class="cls-1" d="M1207.68,128.88c-3.14,3.14-8.24,3.14-11.38,0s-3.14-8.24,0-11.38c3.14-3.14,8.24-3.14,11.38,0,3.14,3.14,3.14,8.24,0,11.38Z"/><polygon class="cls-1" points="1154.46 39.89 1153.85 39.26 1450.2 -251.83 1478.18 -279.16 1478.79 -278.53 1450.81 -251.21 1154.46 39.89"/><polygon class="cls-1" points="1159.02 44.45 1158.41 43.83 1453.64 -248.39 1493 -293.98 1493.67 -293.41 1454.28 -247.79 1159.02 44.45"/><polygon class="cls-1" points="1163.59 49.01 1162.97 48.39 1457.17 -244.85 1507.34 -310.15 1508.04 -309.62 1457.83 -244.27 1163.59 49.01"/><polygon class="cls-1" points="1167.53 52.95 1460.77 -241.25 1526.16 -291.5 1526.69 -290.8 1461.35 -240.6 1168.15 53.57 1167.53 52.95"/><polygon class="cls-1" points="1172.09 57.52 1464.31 -237.72 1509.95 -277.13 1510.52 -276.46 1464.9 -237.08 1172.71 58.13 1172.09 57.52"/><polygon class="cls-1" points="1176.65 62.08 1467.75 -234.27 1495.07 -262.25 1495.7 -261.64 1468.37 -233.66 1177.27 62.69 1176.65 62.08"/><path d="M1270.08,922.64c10.25-10.25,31.37-8.32,46.59-23.54,5.29-5.29,10.22-11.73,4.7-17.25-5.3-5.3-14.32,7.96-30.1-7.82-8.88-8.88-3.89-24.04,1.42-29.35l3.57-28.16-20.41-20.41c-17.17-17.17-45-17.17-62.17,0-15.22,15.22-13.29,36.34-23.54,46.59-18.21,18.21-54.65-6.34-96.69,36.18-30,30.34-29.67,79.3.5,109.47l15.24,15.24,15.24,15.24c30.17,30.17,79.13,30.49,109.47.5,42.52-42.04,17.97-78.48,36.18-96.69Z"/><rect x="1187.58" y="880.29" width="31.14" height="58.67" rx="1.5" ry="1.5" transform="translate(2697.11 702.07) rotate(135)"/><rect class="cls-1" x="1175.57" y="895.8" width="55.17" height="27.64" rx="1" ry="1" transform="translate(995.6 -584.33) rotate(45)"/><rect x="1181.67" y="897.94" width="42.97" height="23.36" rx="1" ry="1" transform="translate(995.6 -584.33) rotate(45)"/><polygon class="cls-1" points="1158.55 932.03 1157.94 931.41 1454.29 640.32 1482.27 612.99 1482.88 613.61 1454.9 640.94 1158.55 932.03"/><polygon class="cls-1" points="1163.11 936.6 1162.5 935.97 1457.73 643.76 1497.09 598.16 1497.76 598.74 1458.37 644.36 1163.11 936.6"/><polygon class="cls-1" points="1167.68 941.16 1167.06 940.54 1461.26 647.3 1511.43 581.99 1512.13 582.53 1461.92 647.87 1167.68 941.16"/><polygon class="cls-1" points="1171.62 945.1 1464.86 650.89 1530.25 600.65 1530.78 601.34 1465.44 651.55 1172.24 945.72 1171.62 945.1"/><polygon class="cls-1" points="1176.18 949.66 1468.39 654.43 1514.04 615.02 1514.61 615.68 1468.99 655.07 1176.8 950.28 1176.18 949.66"/><polygon class="cls-1" points="1180.74 954.22 1471.83 657.87 1499.16 629.89 1499.79 630.51 1472.46 658.49 1181.36 954.84 1180.74 954.22"/><path d="M368.88,738.98c-20.31,20.31-31.98,10.9-49.13,28.06-13.92,13.92-12.17,47.83,8.13,27.53,8.81-8.81,27.31-4.46,34.18,2.41,5.87,5.87,12.5,16.3-8.79,37.6l-3.41,26.89s38.58-12.95,49.09-2.44c15.16,15.16,1.99,29.98-12.11,44.07-19.68,19.68-5.66,24.54,1,24.14,9-.53,21.36-6.72,34.77-20.13,15.21-15.21,29.45-50.17,39.24-59.96,30.71-30.71,57.22-14.71,92.23-49.73,20.31-20.31,29.06-59.88.1-88.84l-25.73-25.73-30.35-30.35c-22.81-22.81-58.08-21.15-73.93-5.3-42.44,42.44-34.75,71.23-55.29,91.77Z"/><path class="cls-1" d="M392.95,712.02c-4.44,11.85-8.63,23.05-18.31,32.73-12.02,12.02-21.62,14.95-30.09,17.54-6.85,2.09-12.26,3.74-19.04,10.52-5.33,5.33-7.06,14.31-6.64,18.82.82-.59,1.9-1.48,3.24-2.82,12.56-12.56,36.01-7.27,45.7,2.41,12.91,12.91,27.27,52.42,36.89,62.04.05.05.11.13.18.23,3.26,4.93,10.39,4.99,13.32-.14,4.86-8.54,10.93-18.62,14.32-22,21.92-21.92,35.5-11.38,62.21-38.1,18.69-18.69,7.05-38.99-.28-46.32-13.06-13.06-30.38-30.38-30.38-30.38-23.4-23.4-14.19-55.51-21.14-62.45-4.15-4.15-8.54-5.58-13-1.12-23.78,23.78-30.79,42.51-36.98,59.05Z"/><path d="M375.16,809.87s5.33,2.45,14.42,11.54c9.08,9.08,11.54,14.42,11.54,14.42l-207.06,199.86-18.75-18.75,199.86-207.06Z"/><path d="M434.11,741.79l35.54,35.54c1.42,1.42,3.71,1.42,5.13,0l13.56-13.56c1.42-1.42,1.42-3.71,0-5.13h0c-1.42-1.42-34.13-34.13-35.54-35.54h0c-1.42-1.42-3.71-1.42-5.13,0l-13.56,13.56c-1.42,1.42-1.42,3.71,0,5.13Z"/><path class="cls-1" d="M451.64,722.48h19.17c1.44,0,2.6,1.17,2.6,2.6v50.26c0,1.44-1.17,2.6-2.6,2.6h-19.17c-1.44,0-2.61-1.17-2.61-2.61v-50.26c0-1.44,1.17-2.61,2.61-2.61Z" transform="translate(-395.39 545.87) rotate(-45)"/><path d="M451.64,723.5h19.17c.88,0,1.59.71,1.59,1.59v50.26c0,.88-.71,1.59-1.59,1.59h-19.17c-.88,0-1.59-.71-1.59-1.59v-50.26c0-.88.71-1.59,1.59-1.59Z" transform="translate(-395.39 545.87) rotate(-45)"/><path d="M412.01,721.9c3.14-3.14,8.24-3.14,11.38,0,3.14,3.14,3.14,8.24,0,11.38-3.14,3.14-8.24,3.14-11.38,0s-3.14-8.24,0-11.38Z"/><path d="M411.17,694.3c3.14-3.14,8.24-3.14,11.38,0s3.14,8.24,0,11.38-8.24,3.14-11.38,0c-3.14-3.14-3.14-8.24,0-11.38Z"/><path d="M423.85,669.4c3.14-3.14,8.24-3.14,11.38,0,3.14,3.14,3.14,8.24,0,11.38s-8.24,3.14-11.38,0c-3.14-3.14-3.14-8.24,0-11.38Z"/><rect x="398.41" y="785.25" width="42.97" height="11.68" rx="1.67" ry="1.67" transform="translate(157.42 1647.39) rotate(-135)"/><path class="cls-1" d="M429.15,800.27c.8-.8,2.1-.8,2.91,0s.8,2.1,0,2.91-2.1.8-2.91,0-.8-2.1,0-2.91Z"/><path class="cls-1" d="M424.88,796c.8-.8,2.1-.8,2.91,0s.8,2.1,0,2.91-2.1.8-2.91,0-.8-2.1,0-2.91Z"/><path class="cls-1" d="M420.61,791.74c.8-.8,2.1-.8,2.91,0s.8,2.1,0,2.91-2.1.8-2.91,0-.8-2.1,0-2.91Z"/><path class="cls-1" d="M416.34,787.47c.8-.8,2.1-.8,2.91,0s.8,2.1,0,2.91-2.1.8-2.91,0-.8-2.1,0-2.91Z"/><path class="cls-1" d="M412.08,783.2c.8-.8,2.1-.8,2.91,0s.8,2.1,0,2.91-2.1.8-2.91,0-.8-2.1,0-2.91Z"/><path class="cls-1" d="M407.81,778.93c.8-.8,2.1-.8,2.91,0s.8,2.1,0,2.91-2.1.8-2.91,0-.8-2.1,0-2.91Z"/><rect x="416.36" y="767.31" width="42.97" height="11.68" rx="1.67" ry="1.67" transform="translate(200.74 1629.44) rotate(-135)"/><path class="cls-1" d="M447.1,782.33c.8-.8,2.1-.8,2.91,0s.8,2.1,0,2.91-2.1.8-2.91,0-.8-2.1,0-2.91Z"/><path class="cls-1" d="M442.83,778.06c.8-.8,2.1-.8,2.91,0s.8,2.1,0,2.91-2.1.8-2.91,0-.8-2.1,0-2.91Z"/><path class="cls-1" d="M438.56,773.79c.8-.8,2.1-.8,2.91,0s.8,2.1,0,2.91-2.1.8-2.91,0-.8-2.1,0-2.91Z"/><path class="cls-1" d="M434.29,769.52c.8-.8,2.1-.8,2.91,0s.8,2.1,0,2.91-2.1.8-2.91,0-.8-2.1,0-2.91Z"/><path class="cls-1" d="M430.02,765.25c.8-.8,2.1-.8,2.91,0s.8,2.1,0,2.91-2.1.8-2.91,0-.8-2.1,0-2.91Z"/><path class="cls-1" d="M425.75,760.99c.8-.8,2.1-.8,2.91,0s.8,2.1,0,2.91-2.1.8-2.91,0-.8-2.1,0-2.91Z"/><rect x="380.47" y="803.19" width="42.97" height="11.68" rx="1.67" ry="1.67" transform="translate(114.1 1665.33) rotate(-135)"/><path class="cls-1" d="M411.21,818.22c.8-.8,2.1-.8,2.91,0s.8,2.1,0,2.91-2.1.8-2.91,0-.8-2.1,0-2.91Z"/><path class="cls-1" d="M406.94,813.95c.8-.8,2.1-.8,2.91,0s.8,2.1,0,2.91-2.1.8-2.91,0-.8-2.1,0-2.91Z"/><path class="cls-1" d="M402.67,809.68c.8-.8,2.1-.8,2.91,0s.8,2.1,0,2.91-2.1.8-2.91,0-.8-2.1,0-2.91Z"/><path class="cls-1" d="M398.4,805.41c.8-.8,2.1-.8,2.91,0s.8,2.1,0,2.91-2.1.8-2.91,0-.8-2.1,0-2.91Z"/><circle class="cls-1" cx="395.58" cy="802.6" r="2.06"/><path class="cls-1" d="M389.86,796.87c.8-.8,2.1-.8,2.91,0s.8,2.1,0,2.91-2.1.8-2.91,0-.8-2.1,0-2.91Z"/><rect class="cls-1" x="441.15" y="743.89" width="42.97" height="8.93" transform="translate(260.6 1604.65) rotate(-135)"/><polygon class="cls-1" points="317.51 916.52 318.24 915.81 295.17 892.74 294.47 893.48 317.51 916.52"/><polygon class="cls-1" points="326.33 908 327.07 907.3 303.69 883.92 302.98 884.65 326.33 908"/><polygon class="cls-1" points="334.65 899.97 335.39 899.27 311.72 875.6 311.01 876.33 334.65 899.97"/><polygon class="cls-1" points="342.47 892.43 343.2 891.72 319.26 867.79 318.56 868.52 342.47 892.43"/><polygon class="cls-1" points="349.93 885.23 350.66 884.52 326.47 860.32 325.76 861.06 349.93 885.23"/><polygon class="cls-1" points="356.84 878.56 357.57 877.85 333.14 853.41 332.43 854.15 356.84 878.56"/><polygon class="cls-1" points="363.45 872.18 364.18 871.48 339.51 846.81 338.8 847.54 363.45 872.18"/><polygon class="cls-1" points="369.55 866.29 370.28 865.59 345.4 840.71 344.69 841.44 369.55 866.29"/><polygon class="cls-1" points="375.4 860.65 376.13 859.94 351.05 834.86 350.34 835.59 375.4 860.65"/><polygon class="cls-1" points="381.02 855.22 381.75 854.51 356.48 829.23 355.77 829.97 381.02 855.22"/><polygon class="cls-1" points="386.15 850.27 386.88 849.56 361.43 824.1 360.72 824.84 386.15 850.27"/><polygon class="cls-1" points="391.04 845.55 391.78 844.84 366.15 819.21 365.44 819.94 391.04 845.55"/><polygon class="cls-1" points="370.58 814.62 369.88 815.35 395.64 841.11 396.37 840.4 370.58 814.62"/><path class="cls-1" d="M340.28,868.06c.73-.73,1.92-.73,2.65,0s.73,1.92,0,2.65-1.92.73-2.65,0-.73-1.92,0-2.65Z"/><path class="cls-1" d="M353.16,855.18c.73-.73,1.92-.73,2.65,0s.73,1.92,0,2.65-1.92.73-2.65,0-.73-1.92,0-2.65Z"/><path class="cls-1" d="M364.67,843.67c.73-.73,1.92-.73,2.65,0s.73,1.92,0,2.65-1.92.73-2.65,0-.73-1.92,0-2.65Z"/><path class="cls-1" d="M374.87,833.46c.73-.73,1.92-.73,2.65,0s.73,1.92,0,2.65-1.92.73-2.65,0-.73-1.92,0-2.65Z"/><path class="cls-1" d="M324.99,897.76c.73-.73,1.92-.73,2.65,0s.73,1.92,0,2.65-1.92.73-2.65,0-.73-1.92,0-2.65Z"/><path class="cls-1" d="M310.58,883.35c.73-.73,1.92-.73,2.65,0s.73,1.92,0,2.65-1.92.73-2.65,0-.73-1.92,0-2.65Z"/><polygon class="cls-1" points="473.76 759.41 474.38 760.04 191.59 1037.56 173.29 1057.09 172.65 1056.49 190.97 1036.95 473.76 759.41"/><polygon class="cls-1" points="469.2 754.85 469.82 755.48 188.15 1034.12 160.2 1064.33 159.56 1063.74 187.52 1033.51 469.2 754.85"/><polygon class="cls-1" points="464.64 750.29 465.26 750.91 184.62 1030.58 147 1071.65 146.35 1071.06 183.99 1029.98 464.64 750.29"/><polygon class="cls-1" points="460.69 746.35 181.02 1026.99 133.85 1078.94 133.21 1078.35 180.39 1026.38 460.08 745.73 460.69 746.35"/><polygon class="cls-1" points="456.13 741.79 177.49 1023.45 120.73 1086.24 120.08 1085.65 176.85 1022.85 455.51 741.17 456.13 741.79"/><polygon class="cls-1" points="451.57 737.22 174.05 1020.01 107.59 1093.53 106.94 1092.94 173.41 1019.41 450.95 736.61 451.57 737.22"/><path d="M368.88-161.02c-20.31,20.31-31.98,10.9-49.13,28.06-13.92,13.92-12.17,47.83,8.13,27.53,8.81-8.81,27.31-4.46,34.18,2.41,5.87,5.87,12.5,16.3-8.79,37.6l-3.41,26.89s38.58-12.95,49.09-2.44c15.16,15.16,1.99,29.98-12.11,44.07-19.68,19.68-5.66,24.54,1,24.14,9-.53,21.36-6.72,34.77-20.13,15.21-15.21,29.45-50.17,39.24-59.96,30.71-30.71,57.22-14.71,92.23-49.73,20.31-20.31,29.06-59.88.1-88.84l-25.73-25.73-30.35-30.35c-22.81-22.81-58.08-21.15-73.93-5.3-42.44,42.44-34.75,71.23-55.29,91.77Z"/><path d="M177.99,165.16h6.2c1.05,0,1.89.85,1.89,1.89v9.76c0,1.05-.85,1.89-1.89,1.89h-6.2c-.32,0-.58-.26-.58-.58v-12.39c0-.32.26-.58.58-.58Z" transform="translate(246.13 -69.82) rotate(61.5)"/><rect x="170.02" y="162.98" width="15.88" height="3.97" transform="translate(238.01 -70.14) rotate(61.5)"/><path d="M164.85,172.46h6.2c1.05,0,1.89.85,1.89,1.89v9.76c0,1.05-.85,1.89-1.89,1.89h-6.2c-.32,0-.58-.26-.58-.58v-12.39c0-.32.26-.58.58-.58Z" transform="translate(245.67 -54.46) rotate(61.5)"/><rect x="156.88" y="170.27" width="15.88" height="3.97" transform="translate(237.56 -54.78) rotate(61.5)"/><path d="M151.72,179.76h6.2c1.05,0,1.89.85,1.89,1.89v9.76c0,1.05-.85,1.89-1.89,1.89h-6.2c-.32,0-.58-.26-.58-.58v-12.39c0-.32.26-.58.58-.58Z" transform="translate(245.21 -39.11) rotate(61.5)"/><rect x="143.75" y="177.57" width="15.87" height="3.97" transform="translate(237.1 -39.43) rotate(61.5)"/><path d="M138.58,187.05h6.2c1.05,0,1.89.85,1.89,1.89v9.76c0,1.05-.85,1.89-1.89,1.89h-6.2c-.32,0-.58-.26-.58-.58v-12.39c0-.32.26-.58.58-.58Z" transform="translate(244.76 -23.75) rotate(61.5)"/><rect x="130.61" y="184.86" width="15.88" height="3.97" transform="translate(236.65 -24.07) rotate(61.5)"/><path d="M125.45,194.35h6.2c1.05,0,1.89.85,1.89,1.89v9.76c0,1.05-.85,1.89-1.89,1.89h-6.2c-.32,0-.58-.26-.58-.58v-12.39c0-.32.26-.58.58-.58Z" transform="translate(244.31 -8.39) rotate(61.5)"/><rect x="117.48" y="192.16" width="15.88" height="3.97" transform="translate(236.2 -8.71) rotate(61.5)"/><path d="M112.32,201.65h6.2c1.05,0,1.89.85,1.89,1.89v9.76c0,1.05-.85,1.89-1.89,1.89h-6.2c-.32,0-.58-.26-.58-.58v-12.39c0-.32.26-.58.58-.58Z" transform="translate(243.85 6.96) rotate(61.5)"/><rect x="104.35" y="199.46" width="15.88" height="3.97" transform="translate(235.74 6.65) rotate(61.5)"/><path d="M375.16-90.13s5.33,2.45,14.42,11.54c9.08,9.08,11.54,14.42,11.54,14.42l-207.06,199.86-18.75-18.75,199.86-207.06Z"/><rect class="cls-1" x="170.34" y="125.86" width="26.51" height="3.06" transform="translate(223.33 347.29) rotate(-135)"/><path d="M103.02,206.21c19.28-10.55,77.85-43.57,77.85-43.57,2.01-1.12,3.1-3.39,2.75-5.66-1.14-7.28,1.33-12.19,8.27-19.13l-9.37-9.37-9.37-9.37c-6.94,6.94-13.76,8.96-19.72,9.1-6.72.15-12.68,4.29-15.38,10.44-2.78,6.33-6.74,13.94-12.45,19.65-25.03,25.03-28.35,8.62-39.54,19.81-10.97,10.97-6.86,20.25-.16,26.94,3.04,3.04,9.33,5.45,17.14,1.17Z"/><path class="cls-1" d="M172.11,154.21c2.09-1.13,4.7-.36,5.83,1.73,1.13,2.09.36,4.7-1.73,5.83-2.09,1.13-4.7.36-5.83-1.73-1.13-2.09-.36-4.7,1.73-5.83Z"/><path class="cls-1" d="M158.98,161.5c2.09-1.13,4.7-.36,5.83,1.73,1.13,2.09.36,4.7-1.73,5.83-2.09,1.13-4.7.36-5.83-1.73-1.13-2.09-.36-4.7,1.73-5.83Z"/><path class="cls-1" d="M145.85,168.8c2.09-1.13,4.7-.36,5.83,1.73,1.13,2.09.36,4.7-1.73,5.83-2.09,1.13-4.7.36-5.83-1.73-1.13-2.09-.36-4.7,1.73-5.83Z"/><path class="cls-1" d="M132.71,176.1c2.09-1.13,4.7-.36,5.83,1.73,1.13,2.09.36,4.7-1.73,5.83-2.09,1.13-4.7.36-5.83-1.73-1.13-2.09-.36-4.7,1.73-5.83Z"/><path class="cls-1" d="M119.58,183.39c2.09-1.13,4.7-.36,5.83,1.73,1.13,2.09.36,4.7-1.73,5.83-2.09,1.13-4.7.36-5.83-1.73-1.13-2.09-.36-4.7,1.73-5.83Z"/><path class="cls-1" d="M106.44,190.69c2.09-1.13,4.7-.36,5.83,1.73,1.13,2.09.36,4.7-1.73,5.83-2.09,1.13-4.7.36-5.83-1.73-1.13-2.09-.36-4.7,1.73-5.83Z"/><polygon class="cls-1" points="209.49 120.78 210.23 120.07 190.92 100.76 190.21 101.49 209.49 120.78"/><polygon class="cls-1" points="224.7 106.1 225.43 105.39 205.59 85.55 204.89 86.29 224.7 106.1"/><polygon class="cls-1" points="238.81 92.48 239.55 91.77 219.22 71.44 218.51 72.17 238.81 92.48"/><polygon class="cls-1" points="252.2 79.56 252.93 78.85 232.13 58.06 231.43 58.79 252.2 79.56"/><polygon class="cls-1" points="264.8 67.4 265.53 66.69 244.3 45.45 243.59 46.19 264.8 67.4"/><polygon class="cls-1" points="276.73 55.88 277.46 55.18 255.81 33.53 255.1 34.26 276.73 55.88"/><polygon class="cls-1" points="287.81 45.19 288.54 44.48 266.51 22.44 265.8 23.18 287.81 45.19"/><polygon class="cls-1" points="298.4 34.97 299.13 34.26 276.73 11.85 276.02 12.59 298.4 34.97"/><polygon class="cls-1" points="308.18 25.52 308.91 24.82 286.17 2.07 285.46 2.81 308.18 25.52"/><polygon class="cls-1" points="317.51 16.52 318.24 15.81 295.17 -7.26 294.47 -6.52 317.51 16.52"/><polygon class="cls-1" points="326.33 8 327.07 7.3 303.69 -16.08 302.98 -15.35 326.33 8"/><path class="cls-1" d="M247.04,61.3c.73-.73,1.92-.73,2.65,0s.73,1.92,0,2.65-1.92.73-2.65,0-.73-1.92,0-2.65Z"/><path class="cls-1" d="M220.76,87.58c.73-.73,1.92-.73,2.65,0s.73,1.92,0,2.65-1.92.73-2.65,0-.73-1.92,0-2.65Z"/><path class="cls-1" d="M270.4,37.94c.73-.73,1.92-.73,2.65,0s.73,1.92,0,2.65-1.92.73-2.65,0-.73-1.92,0-2.65Z"/><path class="cls-1" d="M291.05,17.29c.73-.73,1.92-.73,2.65,0s.73,1.92,0,2.65-1.92.73-2.65,0-.73-1.92,0-2.65Z"/><path class="cls-1" d="M324.99-2.24c.73-.73,1.92-.73,2.65,0s.73,1.92,0,2.65-1.92.73-2.65,0-.73-1.92,0-2.65Z"/><polygon class="cls-1" points="473.76 -140.59 474.38 -139.96 191.59 137.56 173.29 157.09 172.65 156.49 190.97 136.95 473.76 -140.59"/><polygon class="cls-1" points="469.2 -145.15 469.82 -144.52 188.15 134.12 160.2 164.33 159.56 163.74 187.52 133.51 469.2 -145.15"/><polygon class="cls-1" points="464.64 -149.71 465.26 -149.09 184.62 130.58 147 171.65 146.35 171.06 183.99 129.98 464.64 -149.71"/><polygon class="cls-1" points="460.69 -153.65 181.02 126.99 133.85 178.94 133.21 178.35 180.39 126.38 460.08 -154.27 460.69 -153.65"/><polygon class="cls-1" points="456.13 -158.21 177.49 123.45 120.73 186.24 120.08 185.65 176.85 122.85 455.51 -158.83 456.13 -158.21"/><polygon class="cls-1" points="451.57 -162.78 174.05 120.01 107.59 193.53 106.94 192.94 173.41 119.41 450.95 -163.39 451.57 -162.78"/><path d="M176.15,156.91c.6,1.1.19,2.47-.91,3.07-1.1.6-2.47.19-3.07-.91-.6-1.1-.19-2.47.91-3.07,1.1-.6,2.47-.19,3.07.91Z"/><path d="M163.02,164.2c.6,1.1.19,2.47-.91,3.07-1.1.6-2.47.19-3.07-.91-.6-1.1-.19-2.47.91-3.07,1.1-.6,2.47-.19,3.07.91Z"/><path d="M149.89,171.5c.6,1.1.19,2.47-.91,3.07-1.1.6-2.47.19-3.07-.91-.6-1.1-.19-2.47.91-3.07,1.1-.6,2.47-.19,3.07.91Z"/><path d="M136.75,178.8c.6,1.1.19,2.47-.91,3.07-1.1.6-2.47.19-3.07-.91-.6-1.1-.19-2.47.91-3.07,1.1-.6,2.47-.19,3.07.91Z"/><path d="M123.62,186.09c.6,1.1.19,2.47-.91,3.07-1.1.6-2.47.19-3.07-.91-.6-1.1-.19-2.47.91-3.07,1.1-.6,2.47-.19,3.07.91Z"/><path d="M110.49,193.39c.6,1.1.19,2.47-.91,3.07-1.1.6-2.47.19-3.07-.91-.6-1.1-.19-2.47.91-3.07,1.1-.6,2.47-.19,3.07.91Z"/><path d="M632.84,427.64l101.81-48.51c1.76-.84,3.25-2.15,4.31-3.78l9.34-14.45c1.04-1.61-.47-3.66-2.31-3.11-18.8,5.53-81.42,21.98-101.18,2.22-15.61-15.61,54.23-99.02,54.23-99.02,0,0-59.39,53.87-71.01,42.25-10.5-10.5,1.45-34.91,6.49-43.99.76-1.38-.43-3.01-1.97-2.71l-10.16,1.98c-3.51.69-6.64,2.67-8.76,5.55l-58.19,78.97c-6.47,8.78-15.71,15.14-26.22,18.05l-165.08,45.64c-5.95,1.68-11.2,5.24-14.96,10.15l-6.58,8.6c-1.12,1.46,0,3.56,1.84,3.43,25.73-1.87,148.88-8.03,197.29,40.38,26.06,26.06,16,64.25,16,64.25l19.09-11.61,33.43-71.26c4.58-10.1,12.59-18.25,22.6-23.02Z"/><path d="M872.66,114.48h6.2c1.05,0,1.89.85,1.89,1.89v9.76c0,1.05-.85,1.89-1.89,1.89h-6.2c-.32,0-.58-.26-.58-.58v-12.39c0-.32.26-.58.58-.58Z" transform="translate(17.48 -90.94) rotate(6)"/><rect x="860.58" y="118.44" width="15.87" height="3.97" transform="translate(17.34 -90.12) rotate(6)"/><path d="M874.37,99.55h6.2c1.05,0,1.89.85,1.89,1.89v9.76c0,1.05-.85,1.89-1.89,1.89h-6.2c-.32,0-.58-.26-.58-.58v-12.39c0-.32.26-.58.58-.58Z" transform="translate(15.93 -91.21) rotate(6)"/><rect x="862.29" y="103.51" width="15.88" height="3.97" transform="translate(15.79 -90.38) rotate(6)"/><path d="M876.09,84.63h6.2c1.05,0,1.89.85,1.89,1.89v9.76c0,1.05-.85,1.89-1.89,1.89h-6.2c-.32,0-.58-.26-.58-.58v-12.39c0-.32.26-.58.58-.58Z" transform="translate(14.37 -91.47) rotate(6)"/><rect x="864.01" y="88.58" width="15.88" height="3.97" transform="translate(14.24 -90.64) rotate(6)"/><path d="M877.8,69.7h6.2c1.05,0,1.89.85,1.89,1.89v9.76c0,1.05-.85,1.89-1.89,1.89h-6.2c-.32,0-.58-.26-.58-.58v-12.39c0-.32.26-.58.58-.58Z" transform="translate(12.82 -91.71) rotate(6)"/><rect x="865.72" y="73.66" width="15.88" height="3.97" transform="translate(12.69 -90.91) rotate(6)"/><path d="M879.52,54.77h6.2c1.05,0,1.89.85,1.89,1.89v9.76c0,1.05-.85,1.89-1.89,1.89h-6.2c-.32,0-.58-.26-.58-.58v-12.39c0-.32.26-.58.58-.58Z" transform="translate(11.27 -91.99) rotate(6)"/><rect x="867.44" y="58.73" width="15.88" height="3.97" transform="translate(11.14 -91.16) rotate(6)"/><path d="M881.23,39.85h6.2c1.05,0,1.89.85,1.89,1.89v9.76c0,1.05-.85,1.89-1.89,1.89h-6.2c-.32,0-.58-.26-.58-.58v-12.39c0-.32.26-.58.58-.58Z" transform="translate(9.72 -92.25) rotate(6)"/><rect x="869.15" y="43.81" width="15.88" height="3.97" transform="translate(9.59 -91.44) rotate(6)"/><polygon points="634.57 351.33 608.62 325.38 815.68 125.52 834.43 144.27 634.57 351.33"/><rect x="812.88" y="132.28" width="26.51" height="3.06" transform="translate(336.59 -544.98) rotate(45)"/><path d="M868.18,18.9l7.39,16.61c.79,1.78,1.1,3.75.88,5.69l-9.9,87.74c-.1.87-.85,1.48-1.73,1.46-8.57-.22-20.1,3.57-28.23,11.7l-18.75-18.75c12.55-12.55,43.21-91.1,48.77-104.44.29-.69,1.26-.69,1.56,0Z"/><path class="cls-1" d="M856.35,119.14c-.25,2.36,1.46,4.48,3.83,4.73,2.36.25,4.48-1.47,4.73-3.83.25-2.36-1.47-4.48-3.83-4.73-2.36-.25-4.48,1.47-4.73,3.83Z"/><path class="cls-1" d="M858.06,104.22c-.25,2.36,1.47,4.48,3.83,4.73,2.36.25,4.48-1.47,4.73-3.83.25-2.36-1.47-4.48-3.83-4.73-2.36-.25-4.48,1.47-4.73,3.83Z"/><path class="cls-1" d="M859.78,89.29c-.25,2.36,1.46,4.48,3.83,4.73,2.36.25,4.48-1.47,4.73-3.83.25-2.36-1.46-4.48-3.83-4.73-2.36-.25-4.48,1.47-4.73,3.83Z"/><path class="cls-1" d="M861.49,74.37c-.25,2.36,1.47,4.48,3.83,4.73,2.36.25,4.48-1.47,4.73-3.83.25-2.36-1.47-4.48-3.83-4.73-2.36-.25-4.48,1.47-4.73,3.83Z"/><path class="cls-1" d="M863.21,59.44c-.25,2.36,1.47,4.48,3.83,4.73,2.36.25,4.48-1.47,4.73-3.83.25-2.36-1.47-4.48-3.83-4.73-2.36-.25-4.48,1.47-4.73,3.83Z"/><path class="cls-1" d="M864.92,44.51c-.25,2.36,1.47,4.48,3.83,4.73,2.36.25,4.48-1.47,4.73-3.83.25-2.36-1.47-4.48-3.83-4.73-2.36-.25-4.48,1.47-4.73,3.83Z"/><path class="cls-1" d="M598.63,444.12c-3.14,3.14-8.24,3.14-11.38,0-3.14-3.14-3.14-8.24,0-11.38,3.14-3.14,8.24-3.14,11.38,0s3.14,8.24,0,11.38Z"/><path class="cls-1" d="M578.74,486.77c-3.14,3.14-8.24,3.14-11.38,0-3.14-3.14-3.14-8.24,0-11.38,3.14-3.14,8.24-3.14,11.38,0,3.14,3.14,3.14,8.24,0,11.38Z"/><path class="cls-1" d="M575.85,419.64l-35.54-35.54c-1.42-1.42-3.71-1.42-5.13,0l-13.56,13.56c-1.42,1.42-1.42,3.71,0,5.13h0c1.42,1.42,1.42,3.71,0,5.13l-8.32,8.32c-1.42,1.42-1.42,3.71,0,5.13l25.29,25.29c1.42,1.42,3.71,1.42,5.13,0l8.32-8.32c1.42-1.42,3.71-1.42,5.13,0h0c1.42,1.42,3.71,1.42,5.13,0l13.56-13.56c1.42-1.42,1.42-3.71,0-5.13Z"/><path d="M514.03,420.63c-1.02-1.02-1.02-2.67,0-3.69l8.32-8.32c1.81-1.81,1.81-4.76,0-6.57-1.02-1.02-1.01-2.67,0-3.69l13.56-13.56c1.02-1.02,2.67-1.02,3.68,0l35.54,35.54c1.02,1.02,1.02,2.67,0,3.68l-13.56,13.56c-1.02,1.02-2.67,1.02-3.69,0-1.81-1.81-4.76-1.81-6.57,0l-8.32,8.32c-1.02,1.02-2.67,1.02-3.69,0l-25.29-25.29Z"/><path class="cls-1" d="M514.75,419.91c-.62-.62-.62-1.63,0-2.25l8.32-8.32c2.21-2.21,2.21-5.8,0-8.01-.62-.62-.62-1.63,0-2.24l13.56-13.56c.62-.62,1.63-.62,2.24,0l35.54,35.54c.62.62.62,1.63,0,2.24l-13.56,13.56c-.62.62-1.63.62-2.25,0-2.21-2.21-5.8-2.21-8.01,0l-8.32,8.32c-.62.62-1.63.62-2.25,0l-25.29-25.29Z"/><rect class="cls-1" x="580.14" y="338.85" width="55.17" height="27.64" rx="1" ry="1" transform="translate(427.38 -326.43) rotate(45)"/><rect x="590.38" y="342.7" width="42.97" height="11.68" rx="1.67" ry="1.67" transform="translate(425.67 -330.56) rotate(45)"/><rect x="582.12" y="350.96" width="42.97" height="11.68" rx="1.67" ry="1.67" transform="translate(429.09 -322.3) rotate(45)"/><rect class="cls-1" x="542.53" y="376.47" width="55.17" height="27.64" rx="1" ry="1" transform="translate(442.96 -288.82) rotate(45)"/><rect x="552.76" y="380.32" width="42.97" height="11.68" rx="1.67" ry="1.67" transform="translate(441.25 -292.95) rotate(45)"/><rect x="544.5" y="388.58" width="42.97" height="11.68" rx="1.67" ry="1.67" transform="translate(444.67 -284.69) rotate(45)"/><path class="cls-1" d="M602.64,339.33c-.8.8-2.1.8-2.91,0s-.8-2.1,0-2.91,2.1-.8,2.91,0,.8,2.1,0,2.91Z"/><path class="cls-1" d="M606.91,343.59c-.8.8-2.1.8-2.91,0s-.8-2.1,0-2.91,2.1-.8,2.91,0,.8,2.1,0,2.91Z"/><path class="cls-1" d="M611.18,347.86c-.8.8-2.1.8-2.91,0s-.8-2.1,0-2.91,2.1-.8,2.91,0,.8,2.1,0,2.91Z"/><path class="cls-1" d="M615.45,352.13c-.8.8-2.1.8-2.91,0s-.8-2.1,0-2.91,2.1-.8,2.91,0,.8,2.1,0,2.91Z"/><path class="cls-1" d="M619.72,356.4c-.8.8-2.1.8-2.91,0s-.8-2.1,0-2.91,2.1-.8,2.91,0,.8,2.1,0,2.91Z"/><path class="cls-1" d="M623.98,360.67c-.8.8-2.1.8-2.91,0s-.8-2.1,0-2.91,2.1-.8,2.91,0,.8,2.1,0,2.91Z"/><path class="cls-1" d="M594.38,347.58c-.8.8-2.1.8-2.91,0s-.8-2.1,0-2.91,2.1-.8,2.91,0,.8,2.1,0,2.91Z"/><path class="cls-1" d="M598.65,351.85c-.8.8-2.1.8-2.91,0s-.8-2.1,0-2.91,2.1-.8,2.91,0,.8,2.1,0,2.91Z"/><path class="cls-1" d="M602.92,356.12c-.8.8-2.1.8-2.91,0s-.8-2.1,0-2.91,2.1-.8,2.91,0,.8,2.1,0,2.91Z"/><path class="cls-1" d="M607.19,360.39c-.8.8-2.1.8-2.91,0s-.8-2.1,0-2.91,2.1-.8,2.91,0,.8,2.1,0,2.91Z"/><path class="cls-1" d="M611.46,364.66c-.8.8-2.1.8-2.91,0s-.8-2.1,0-2.91,2.1-.8,2.91,0,.8,2.1,0,2.91Z"/><path class="cls-1" d="M615.73,368.93c-.8.8-2.1.8-2.91,0s-.8-2.1,0-2.91,2.1-.8,2.91,0,.8,2.1,0,2.91Z"/><path class="cls-1" d="M565.02,376.94c-.8.8-2.1.8-2.91,0s-.8-2.1,0-2.91,2.1-.8,2.91,0,.8,2.1,0,2.91Z"/><path class="cls-1" d="M569.29,381.21c-.8.8-2.1.8-2.91,0s-.8-2.1,0-2.91,2.1-.8,2.91,0,.8,2.1,0,2.91Z"/><path class="cls-1" d="M573.56,385.48c-.8.8-2.1.8-2.91,0s-.8-2.1,0-2.91,2.1-.8,2.91,0,.8,2.1,0,2.91Z"/><path class="cls-1" d="M577.83,389.75c-.8.8-2.1.8-2.91,0s-.8-2.1,0-2.91,2.1-.8,2.91,0,.8,2.1,0,2.91Z"/><path class="cls-1" d="M582.1,394.02c-.8.8-2.1.8-2.91,0s-.8-2.1,0-2.91,2.1-.8,2.91,0,.8,2.1,0,2.91Z"/><path class="cls-1" d="M586.37,398.29c-.8.8-2.1.8-2.91,0s-.8-2.1,0-2.91,2.1-.8,2.91,0,.8,2.1,0,2.91Z"/><path class="cls-1" d="M556.76,385.2c-.8.8-2.1.8-2.91,0s-.8-2.1,0-2.91,2.1-.8,2.91,0,.8,2.1,0,2.91Z"/><path class="cls-1" d="M561.03,389.47c-.8.8-2.1.8-2.91,0s-.8-2.1,0-2.91,2.1-.8,2.91,0,.8,2.1,0,2.91Z"/><path class="cls-1" d="M565.3,393.74c-.8.8-2.1.8-2.91,0s-.8-2.1,0-2.91,2.1-.8,2.91,0,.8,2.1,0,2.91Z"/><path class="cls-1" d="M569.57,398.01c-.8.8-2.1.8-2.91,0s-.8-2.1,0-2.91,2.1-.8,2.91,0,.8,2.1,0,2.91Z"/><path class="cls-1" d="M573.84,402.28c-.8.8-2.1.8-2.91,0s-.8-2.1,0-2.91,2.1-.8,2.91,0,.8,2.1,0,2.91Z"/><path class="cls-1" d="M578.11,406.55c-.8.8-2.1.8-2.91,0s-.8-2.1,0-2.91,2.1-.8,2.91,0,.8,2.1,0,2.91Z"/><rect x="525.84" y="408.61" width="42.97" height="8.93" transform="translate(452.4 -266.03) rotate(45)"/><rect x="521.65" y="407.95" width="2.07" height="13.01" transform="translate(446.15 -248.2) rotate(45)"/><rect x="526.21" y="412.51" width="2.07" height="13.01" transform="translate(450.72 -250.09) rotate(45)"/><rect x="530.77" y="417.08" width="2.07" height="13.01" transform="translate(455.28 -251.98) rotate(45)"/><rect x="535.34" y="421.64" width="2.07" height="13.01" transform="translate(459.84 -253.87) rotate(45)"/><rect x="539.9" y="426.2" width="2.07" height="13.01" transform="translate(464.4 -255.76) rotate(45)"/><rect x="544.46" y="430.76" width="2.07" height="13.01" transform="translate(468.96 -257.65) rotate(45)"/><polygon class="cls-1" points="800.24 140.42 799.51 141.13 818.82 160.44 819.53 159.71 800.24 140.42"/><polygon class="cls-1" points="785.03 155.1 784.3 155.81 804.14 175.65 804.85 174.92 785.03 155.1"/><polygon class="cls-1" points="770.92 168.72 770.19 169.43 790.52 189.76 791.23 189.03 770.92 168.72"/><polygon class="cls-1" points="757.54 181.64 756.8 182.35 777.6 203.15 778.31 202.41 757.54 181.64"/><polygon class="cls-1" points="744.93 193.81 744.2 194.51 765.44 215.75 766.14 215.02 744.93 193.81"/><polygon class="cls-1" points="733.01 205.32 732.27 206.03 753.92 227.68 754.63 226.94 733.01 205.32"/><polygon class="cls-1" points="721.92 216.02 721.19 216.72 743.23 238.76 743.93 238.03 721.92 216.02"/><polygon class="cls-1" points="711.33 226.24 710.6 226.94 733.01 249.35 733.71 248.61 711.33 226.24"/><polygon class="cls-1" points="701.55 235.68 700.82 236.38 723.56 259.13 724.27 258.4 701.55 235.68"/><polygon class="cls-1" points="692.22 244.68 691.49 245.39 714.56 268.46 715.27 267.72 692.22 244.68"/><polygon class="cls-1" points="683.4 253.2 682.67 253.91 706.04 277.28 706.75 276.55 683.4 253.2"/><polygon class="cls-1" points="675.08 261.23 674.35 261.94 698.01 285.6 698.72 284.87 675.08 261.23"/><polygon class="cls-1" points="667.27 268.77 666.53 269.48 690.47 293.42 691.18 292.68 667.27 268.77"/><polygon class="cls-1" points="659.8 275.98 659.07 276.68 683.27 300.88 683.97 300.15 659.8 275.98"/><polygon class="cls-1" points="652.89 282.64 652.16 283.35 676.6 307.79 677.31 307.06 652.89 282.64"/><polygon class="cls-1" points="646.29 289.02 645.56 289.73 670.22 314.39 670.93 313.66 646.29 289.02"/><polygon class="cls-1" points="640.19 294.91 639.45 295.62 664.33 320.49 665.04 319.76 640.19 294.91"/><polygon class="cls-1" points="634.34 300.55 633.61 301.26 658.69 326.34 659.4 325.61 634.34 300.55"/><polygon class="cls-1" points="628.71 305.98 627.98 306.69 653.26 331.97 653.97 331.24 628.71 305.98"/><polygon class="cls-1" points="623.58 310.93 622.85 311.64 648.31 337.1 649.02 336.36 623.58 310.93"/><polygon class="cls-1" points="618.69 315.66 617.96 316.36 643.59 341.99 644.29 341.26 618.69 315.66"/><polygon class="cls-1" points="639.15 346.59 639.86 345.85 614.1 320.09 613.36 320.8 639.15 346.59"/><path class="cls-1" d="M762.69,199.9c-.73.73-1.92.73-2.65,0s-.73-1.92,0-2.65,1.92-.73,2.65,0,.73,1.92,0,2.65Z"/><path class="cls-1" d="M788.97,173.63c-.73.73-1.92.73-2.65,0s-.73-1.92,0-2.65,1.92-.73,2.65,0,.73,1.92,0,2.65Z"/><path class="cls-1" d="M739.34,223.26c-.73.73-1.92.73-2.65,0s-.73-1.92,0-2.65,1.92-.73,2.65,0,.73,1.92,0,2.65Z"/><path class="cls-1" d="M718.68,243.92c-.73.73-1.92.73-2.65,0s-.73-1.92,0-2.65,1.92-.73,2.65,0,.73,1.92,0,2.65Z"/><path class="cls-1" d="M669.46,293.14c-.73.73-1.92.73-2.65,0s-.73-1.92,0-2.65,1.92-.73,2.65,0,.73,1.92,0,2.65Z"/><path class="cls-1" d="M656.58,306.02c-.73.73-1.92.73-2.65,0s-.73-1.92,0-2.65,1.92-.73,2.65,0,.73,1.92,0,2.65Z"/><path class="cls-1" d="M645.07,317.53c-.73.73-1.92.73-2.65,0s-.73-1.92,0-2.65,1.92-.73,2.65,0,.73,1.92,0,2.65Z"/><path class="cls-1" d="M634.86,327.74c-.73.73-1.92.73-2.65,0s-.73-1.92,0-2.65,1.92-.73,2.65,0,.73,1.92,0,2.65Z"/><path class="cls-1" d="M684.75,263.44c-.73.73-1.92.73-2.65,0s-.73-1.92,0-2.65,1.92-.73,2.65,0,.73,1.92,0,2.65Z"/><path class="cls-1" d="M699.16,277.85c-.73.73-1.92.73-2.65,0s-.73-1.92,0-2.65,1.92-.73,2.65,0,.73,1.92,0,2.65Z"/><polygon class="cls-1" points="535.66 402.1 535.04 401.48 818.14 123.64 867.82 43.42 868.56 43.88 818.82 124.18 535.66 402.1"/><polygon class="cls-1" points="540.22 406.67 539.6 406.04 821.58 127.08 865.98 58.53 866.72 59 822.26 127.63 540.22 406.67"/><polygon class="cls-1" points="544.78 411.23 544.16 410.61 825.11 130.62 864.31 73.47 865.03 73.96 825.78 131.18 544.78 411.23"/><polygon class="cls-1" points="548.72 415.17 828.71 134.22 862.51 88.29 863.21 88.81 829.37 134.79 549.34 415.79 548.72 415.17"/><polygon class="cls-1" points="553.28 419.73 832.25 137.75 860.75 103.14 861.43 103.7 832.89 138.34 553.91 420.35 553.28 419.73"/><polygon class="cls-1" points="557.85 424.29 835.69 141.2 859.31 118.27 859.92 118.9 836.3 141.82 558.47 424.91 557.85 424.29"/><path d="M860.39,121.84c1.24.13,2.36-.77,2.49-2.01.13-1.24-.77-2.36-2.01-2.49-1.24-.13-2.36.77-2.49,2.01-.13,1.24.77,2.36,2.01,2.49Z"/><path d="M862.1,106.92c1.24.13,2.36-.77,2.49-2.01.13-1.24-.77-2.36-2.01-2.49-1.24-.13-2.36.77-2.49,2.01-.13,1.24.77,2.36,2.01,2.49Z"/><path d="M863.82,91.99c1.24.13,2.36-.77,2.49-2.01.13-1.24-.77-2.36-2.01-2.49-1.24-.13-2.36.77-2.49,2.01-.13,1.24.77,2.36,2.01,2.49Z"/><path d="M865.53,77.07c1.24.13,2.36-.77,2.49-2.01.13-1.24-.77-2.36-2.01-2.49-1.24-.13-2.36.77-2.49,2.01-.13,1.24.77,2.36,2.01,2.49Z"/><path d="M867.25,62.14c1.24.13,2.36-.77,2.49-2.01.13-1.24-.77-2.36-2.01-2.49-1.24-.13-2.36.77-2.49,2.01-.13,1.24.77,2.36,2.01,2.49Z"/><path d="M868.96,47.21c1.24.13,2.36-.77,2.49-2.01.13-1.24-.77-2.36-2.01-2.49-1.24-.13-2.36.77-2.49,2.01-.13,1.24.77,2.36,2.01,2.49Z"/></svg>