<?xml version="1.0" encoding="UTF-8"?><svg id="Rockstar_Logo_and_Text" xmlns="http://www.w3.org/2000/svg" xmlns:xlink="http://www.w3.org/1999/xlink" viewBox="0 0 1002.39 320.42"><defs><style>.cls-1{fill:none;stroke:#fff;stroke-linecap:round;stroke-linejoin:round;stroke-width:15px;}.cls-2{fill:url(#linear-gradient);}</style><linearGradient id="linear-gradient" x1="457.89" y1="20.58" x2="457.89" y2="309.76" gradientUnits="userSpaceOnUse"><stop offset="0" stop-color="#21428c"/><stop offset=".32" stop-color="#fffffc"/><stop offset=".32" stop-color="#160c2b"/><stop offset=".4" stop-color="#381c5d"/><stop offset="1" stop-color="#c7c0d3"/></linearGradient></defs><path class="cls-1" d="M987.01,183.05l-69.24-68.1s-.02-.04,0-.05c6.72-10.06,10.3-21.91,10.3-34.01,0-33.85-27.44-61.31-61.29-61.31h-.14s-61.13,0-61.13,0c-.02,0-.04.02-.04.04v163.39s.02.04.04.04h40.78s.04-.02.04-.04v-81.31h.39l83.06,81.34s.02.01.03.01h57.2ZM866.78,101.32h-20.4s-.04-.02-.04-.04v-40.79s.02-.04.04-.04h20.4c9.2,0,17.46,6.08,19.77,14.99,3.52,13.62-6.66,25.86-19.7,25.88h-.06ZM748.32,70.2l.04.04,50.58-50.58s.07,0,.07.03v163.33s-.02.04-.04.04h-40.78s-.04-.02-.04-.04v-40.82l-.26-23.67s-.05-.06-.07-.03l-65.9,64.83s-.02.01-.03.01h-58.32s-.06-.05-.03-.07l114.77-113.06ZM593.36,60.73h-14.74l-47.11.09c-7.47,0-9.68,7.55-8.2,12.68,1.2,4.2,4.84,7.25,8.99,7.66l39.02,6.9c25.62,3.86,43.3,27.99,39.64,54.09-3.65,25.93-21.28,41.18-51.99,41.18h-22.71s-.02,0-.03-.01l-40.78-40.78s0-.07.03-.07h63.36c5.26,0,9.32-3.42,9.27-9.56-.04-5.32-3.34-10.02-8.55-10.87l-39.12-6.85s-.03,0-.04,0c-25.88-2.72-44.63-26.28-41.86-52.61,2.77-26.33,26.34-42.72,51.89-42.75.18,0,48.2.03,48.2.03h212.41s.06.05.03.07l-40.78,40.78s-.02.01-.03.01h-81.17s-.04.02-.04.04l-.51,81.68s0,.02-.01.03l-40.78,40.78s-.07,0-.07-.03V60.77s-.02-.04-.04-.04h-34.26ZM424,19.96v22.95s.05.06.07.03l23.08-23.07s.02-.01.03-.01h54.37s.06.05.03.07l-68.01,68.01s-.02.04,0,.06l95.25,95.25s0,.07-.03.07h-54.37s-.02,0-.03-.01l-50.32-50.32s-.07,0-.07.03v50.26s-.02.04-.04.04h-41.46s-.04-.02-.04-.04V60.94s0-.02.01-.03l41.46-40.97s.07,0,.07.03ZM348.48,60.72c.25,0,.51,0,.75,0h0s26.55-.28,26.55-.28c.01,0,.02,0,.03-.01l40.79-40.79s0-.07-.03-.07l-26.46.28h-41.58c-24.42,0-46.33,10.7-61.31,27.68-.02.02-.05.02-.06,0-14.99-17.43-37.2-28.46-61.98-28.46-45.14,0-81.74,36.6-81.75,81.73v1.02c0,13.82,3.43,26.84,9.49,38.26.02.04-.03.08-.06.05l-25.17-25.17s-.02-.04,0-.05c6.71-10.06,10.3-21.9,10.31-34.01,0-33.85-27.44-61.31-61.29-61.31H15.42s-.04.02-.04.04v163.39s.02.04.04.04h40.78s.04-.02.04-.04v-81.3h.39l90.43,90.43s.02.01.03.01l53.12-.16c1.66,0,2.49-2.01,1.32-3.19l-14.66-14.66s0-.09.05-.06c11.41,6.06,24.42,9.49,38.24,9.49,24.65,0,46.76-10.91,61.76-28.18.02-.02.05-.02.06,0,14.98,17.13,37,27.94,61.53,27.94h.73l26.52-.27s.04-.02.04-.04v-40.8s-.02-.04-.04-.04l-26.52.29h0c-.24,0-.5,0-.75,0-22.57,0-40.87-18.31-40.87-40.87s18.31-40.87,40.87-40.87ZM76.75,101.32h-20.47s-.04-.02-.04-.04v-40.79s.02-.04.04-.04h20.4c11.2.12,20.22,9.24,20.22,20.44s-8.98,20.28-20.15,20.44ZM225.16,142.19c-22.57,0-40.86-18.31-40.86-40.87s18.31-40.87,40.87-40.86c22.57,0,40.87,18.31,40.87,40.87,0,22.57-18.31,40.87-40.88,40.86ZM-18.44,311.26h-50.58s-.04-.02-.04-.04v-46.14s.02-.04.04-.04H-18.44s.04.02.04.04v46.14s-.02.04-.04.04Z"/><path class="cls-2" d="M-67.57,309.76v-43.22H-19.9v43.22h-47.67ZM59.86,102.82h16.89c11.95-.17,21.65-10.01,21.65-21.94s-9.73-21.8-21.7-21.94h-20.42c-.83,0-1.54.71-1.54,1.54v40.79c0,.07,0,.14.02.21-.01.07-.02.14-.02.22v79.84H16.87V21.08h59.82c32.97,0,59.79,26.83,59.79,59.81,0,11.87-3.48,23.34-10.05,33.18-.4.59-.31,1.44.19,1.94l25.18,25.18c.28.28.69.45,1.09.45.53,0,1.05-.3,1.32-.75.27-.45.29-1.05.04-1.52-6.1-11.48-9.32-24.46-9.32-37.55v-1.02c0-44.24,36-80.23,80.24-80.23,23.4,0,45.58,10.18,60.86,27.94.29.33.73.54,1.17.54s.88-.2,1.16-.53c15.22-17.26,37.15-27.16,60.15-27.16h41.61l22.91-.24-37.84,37.84-25.95.26s-.08,0-.13,0h-.61c-23.36,0-42.37,19-42.37,42.36s19.01,42.37,42.37,42.37h.61s.15,0,.15,0l25.05-.27v37.88l-25.08.25h-.71c-23.13,0-45.15-10-60.4-27.43-.28-.33-.73-.53-1.16-.53s-.88.2-1.16.53c-15.27,17.58-37.36,27.66-60.6,27.66-13.11,0-26.09-3.22-37.56-9.31-.22-.12-.48-.18-.72-.18-.61,0-1.19.39-1.42.95-.23.56-.1,1.25.33,1.68l14.66,14.66c.12.12.14.25.08.4-.06.15-.18.23-.34.23l-52.52.15L59.86,102.82ZM225.15,58.95c-23.36,0-42.36,19-42.36,42.36s19,42.37,42.36,42.37,42.37-19,42.38-42.36c0-23.36-19.01-42.37-42.37-42.37h-.02ZM637.14,181.83l111.96-110.3c.12-.06.23-.14.32-.24l48.09-48.09v158.35h-37.87v-39.37l-.26-23.68c0-.82-.72-1.53-1.54-1.53-.39,0-.8.17-1.08.44l-65.47,64.41h-54.16ZM536.86,181.83l-37.87-37.87h59.84c3.09,0,5.86-1.07,7.79-3.02,1.98-1.99,3.01-4.78,2.98-8.05-.05-6.33-4.08-11.4-9.8-12.34l-39.1-6.84s-.12-.02-.16-.02c-25.01-2.63-43.19-25.49-40.51-50.96,2.85-27.15,27.51-41.38,50.4-41.4.18,0,48.2.03,48.2.03h208.9l-37.87,37.87h-80.56c-.81,0-1.52.69-1.54,1.51l-.51,81.11-37.87,37.87V60.77c0-.83-.71-1.54-1.54-1.54h-49l-47.11.09c-3.29,0-6.01,1.29-7.85,3.73-2.16,2.87-2.86,7.13-1.79,10.86,1.36,4.73,5.46,8.23,10.23,8.73l38.97,6.89c24.74,3.72,41.95,27.23,38.41,52.4-3.67,26.1-21.14,39.89-50.51,39.89h-22.11ZM475.03,181.83l-49.89-49.89c-.28-.28-.69-.45-1.09-.45-.83,0-1.54.71-1.54,1.54v48.8h-38.55V61.54l38.55-38.09v19.46c0,.83.71,1.54,1.54,1.54.4,0,.81-.17,1.09-.45l22.65-22.64h50.25l-65.52,65.52c-.28.28-.45.69-.45,1.09s.17.81.46,1.09l92.76,92.76h-50.25ZM930.41,181.55l-80.4-78.73h16.77c6.9-.01,13.21-3.12,17.4-8.53,4.19-5.42,5.58-12.42,3.82-19.22-2.45-9.49-11.18-16.12-21.22-16.12h-20.4c-.83,0-1.54.71-1.54,1.54v40.79c0,.07,0,.14.02.21-.01.07-.02.14-.02.22v79.85h-37.87V21.08h59.81c32.97,0,59.79,26.83,59.79,59.81,0,11.86-3.48,23.33-10.05,33.18-.4.6-.31,1.46.21,1.96l66.62,65.52h-52.94Z"/><path d="M225.18,22.08c22.95,0,44.71,9.99,59.7,27.41.58.68,1.42,1.07,2.31,1.07s1.71-.38,2.28-1.03c14.95-16.95,36.46-26.67,59.06-26.66h41.61s19.21-.2,19.21-.2l-34.81,34.81-25.34.26c-.06,0-.11,0-.17,0-.04,0-.08,0-.12,0-.14,0-.29,0-.43,0-24.19,0-43.87,19.68-43.87,43.87s19.68,43.87,43.87,43.87c.14,0,.29,0,.43,0,.04,0,.08,0,.12,0,.07,0,.13,0,.2,0,.01,0,.02,0,.03,0l23.53-.25v34.88l-23.56.24h-.73c-22.7,0-44.31-9.81-59.26-26.9-.58-.67-1.42-1.05-2.3-1.05s-1.73.39-2.3,1.05c-14.99,17.25-36.66,27.15-59.49,27.15-12.84,0-25.58-3.16-36.86-9.15-.43-.22-.92-.34-1.4-.34-1.23,0-2.34.74-2.81,1.88-.46,1.12-.2,2.46.66,3.31l12.73,12.73-49.17.14L63.48,104.32h13.31c12.74-.18,23.11-10.69,23.11-23.44s-10.4-23.3-23.22-23.44h-20.4c-1.68,0-3.04,1.36-3.04,3.04v40.79c0,.07,0,.15,0,.22,0,.07,0,.14,0,.22v78.34H18.37V22.58h58.32c32.14,0,58.29,26.16,58.29,58.31,0,11.57-3.4,22.75-9.79,32.33-.81,1.2-.66,2.82.37,3.86l25.19,25.19c.56.55,1.35.87,2.13.87,1.06,0,2.06-.56,2.61-1.47.54-.9.57-2.06.08-3-5.98-11.26-9.14-24-9.14-36.85v-1.02c0-43.41,35.33-78.73,78.74-78.73h.02M225.16,145.19h.01c24.18,0,43.86-19.68,43.86-43.86,0-24.19-19.68-43.87-43.89-43.87-24.18,0-43.86,19.68-43.86,43.86s19.68,43.87,43.86,43.87M866.64,22.58h.15c15.57,0,30.21,6.07,41.22,17.08,11.01,11.01,17.07,25.65,17.07,41.23,0,11.56-3.39,22.74-9.8,32.35-.81,1.21-.64,2.84.4,3.86l64.01,62.96h-48.66l-77.34-75.73h13.16c7.3-.01,14.04-3.33,18.51-9.11,4.47-5.78,5.96-13.26,4.09-20.52-2.62-10.15-11.95-17.24-22.67-17.24h-20.4c-1.68,0-3.04,1.36-3.04,3.04v40.79c0,.07,0,.14,0,.21,0,.07,0,.14,0,.21v78.35h-34.87V22.58h58.16M530.43,22.83c.63,0,48.19.03,48.2.03h205.27l-34.87,34.87h-79.94c-1.67,0-3.03,1.36-3.04,3.02l-.5,80.47-34.87,34.87V60.77c0-1.68-1.36-3.04-3.04-3.04h-49.01l-47.1.09c-3.73,0-6.95,1.54-9.05,4.33-2.43,3.23-3.23,8.01-2.04,12.18,1.52,5.3,6.11,9.22,11.46,9.81l38.92,6.88s.05,0,.08.01c11.59,1.75,21.83,7.96,28.83,17.51,7.01,9.56,9.95,21.35,8.28,33.19-3.55,25.25-20.5,38.6-49.02,38.6h-21.49l-34.87-34.87h56.22c3.49,0,6.64-1.23,8.85-3.46,2.26-2.28,3.45-5.44,3.42-9.12-.06-7.07-4.61-12.75-11.03-13.8l-39.12-6.85c-.07-.01-.18-.03-.24-.03-24.2-2.54-41.78-24.66-39.19-49.31,2.76-26.27,26.69-40.04,48.9-40.06h0M494.41,22.86l-62.97,62.97c-1.18,1.19-1.17,3.11,0,4.29l90.21,90.21h-46.01l-49.45-49.45c-.56-.56-1.36-.89-2.15-.89-1.68,0-3.04,1.36-3.04,3.04v47.3h-35.55V62.17l35.55-35.13v15.87c0,1.68,1.36,3.04,3.04,3.04.8,0,1.59-.33,2.15-.89l22.21-22.21h46.01M796.02,26.82v153.23h-34.87v-37.9s-.26-23.67-.26-23.67c-.02-1.66-1.38-3.01-3.04-3.01-.79,0-1.57.32-2.13.87l-65.03,63.98h-49.89l109.22-107.59c.17-.11.32-.24.47-.38l45.53-45.53M-21.4,268.04v40.22h-44.67v-40.22H-21.4M225.16,19.08c-45.14,0-81.73,36.6-81.74,81.73v1.02c0,13.82,3.43,26.84,9.49,38.26.02.03,0,.06-.04.06-.01,0-.02,0-.03-.01l-25.17-25.17s-.02-.04,0-.05c6.71-10.06,10.3-21.9,10.31-34.01,0-33.85-27.44-61.31-61.29-61.31H15.42s-.04.02-.04.04v163.39s.02.04.04.04h40.78s.04-.02.04-.04v-81.3h.39l90.43,90.43s.02.01.03.01h0l53.12-.16c1.66,0,2.49-2.01,1.32-3.19l-14.66-14.66s0-.07.03-.07c0,0,.01,0,.02,0,11.41,6.06,24.42,9.49,38.24,9.49h.03c24.64,0,46.74-10.92,61.73-28.18,0,0,.02-.01.03-.01s.02,0,.03.01c14.98,17.13,37,27.94,61.53,27.94h.73l26.52-.27s.04-.02.04-.04v-40.8s-.02-.04-.04-.04h0l-26.52.29h0c-.24,0-.5,0-.75,0-22.57,0-40.87-18.31-40.87-40.87s18.31-40.87,40.87-40.87c.25,0,.51,0,.75,0h0s26.55-.28,26.55-.28c.01,0,.02,0,.03-.01l40.79-40.79s0-.07-.03-.07h0l-26.46.28h-41.58s-.02,0-.03,0c-24.41,0-46.31,10.71-61.28,27.68,0,0-.02.01-.03.01s-.02,0-.03-.01c-14.99-17.43-37.2-28.46-61.98-28.46h-.02ZM56.28,101.32s-.04-.02-.04-.04v-40.79s.02-.04.04-.04h20.4c11.2.12,20.22,9.24,20.22,20.44s-8.98,20.28-20.15,20.44h-20.47ZM225.17,142.19h-.02c-22.57,0-40.86-18.31-40.86-40.87s18.3-40.86,40.86-40.86h.02c22.57,0,40.87,18.31,40.87,40.87,0,22.56-18.3,40.86-40.86,40.86h0ZM866.64,19.58h-61.13s-.04.02-.04.04v163.39s.02.04.04.04h40.78s.04-.02.04-.04v-81.31h.39l83.06,81.34s.02.01.03.01h57.2l-69.24-68.1s-.02-.04,0-.05c6.72-10.06,10.3-21.91,10.3-34.01,0-33.85-27.44-61.31-61.29-61.31h-.14ZM846.38,101.32s-.04-.02-.04-.04v-40.79s.02-.04.04-.04h20.4c9.2,0,17.46,6.08,19.77,14.99,3.52,13.62-6.66,25.86-19.7,25.88h-.06s-20.4,0-20.4,0h0ZM798.98,19.64s-.02,0-.03.01l-50.58,50.58-.04-.04-114.77,113.06s0,.07.03.07h58.32s.02,0,.03-.01l65.9-64.83s.02-.01.03-.01c.02,0,.04.02.04.04l.26,23.67v40.82s.02.04.04.04h40.78s.04-.02.04-.04V19.68s-.02-.04-.04-.04h0ZM530.43,19.83s0,0,0,0c-25.54.03-49.12,16.42-51.89,42.75-2.77,26.33,15.98,49.88,41.86,52.61.01,0,.03,0,.04,0l39.12,6.85c5.21.86,8.51,5.56,8.55,10.87.05,6.14-4.01,9.56-9.27,9.56h-63.36s-.06.05-.03.07l40.78,40.78s.02.01.03.01h22.71c30.71,0,48.35-15.25,51.99-41.18,3.67-26.1-14.01-50.23-39.64-54.09l-39.02-6.9c-4.15-.41-7.79-3.46-8.99-7.66-1.47-5.13.74-12.68,8.2-12.68l47.11-.09h49s.04.02.04.04v122.46s.02.04.04.04c.01,0,.02,0,.03-.01l40.78-40.78s.01-.02.01-.03l.51-81.68s.02-.04.04-.04h81.17s.02,0,.03-.01l40.78-40.78s0-.07-.03-.07h-212.41s-47.57-.03-48.2-.03h0ZM501.55,19.86h-54.37s-.02,0-.03.01l-23.08,23.07s-.02.01-.03.01c-.02,0-.04-.02-.04-.04v-22.95s-.02-.04-.04-.04c-.01,0-.02,0-.03.01l-41.46,40.97s-.01.02-.01.03v122.35s.02.04.04.04h41.46s.04-.02.04-.04v-50.26s.02-.04.04-.04c.01,0,.02,0,.03.01l50.32,50.32s.02.01.03.01h54.37s.06-.05.03-.07l-95.25-95.25s-.02-.04,0-.06l68.01-68.01s0-.07-.03-.07h0ZM-18.44,265.04h-50.58s-.04.02-.04.04v46.14s.02.04.04.04H-18.44s.04-.02.04-.04v-46.14s-.02-.04-.04-.04h0Z"/></svg>