<?xml version="1.0" encoding="UTF-8"?><svg id="Rockstar_Logo_and_Text" xmlns="http://www.w3.org/2000/svg" xmlns:xlink="http://www.w3.org/1999/xlink" viewBox="0 0 1002.39 320.42"><defs><style>.cls-1{fill:none;stroke:#fff;stroke-linecap:round;stroke-linejoin:round;stroke-width:15px;}.cls-2{fill:url(#linear-gradient);}</style><linearGradient id="linear-gradient" x1="500.11" y1="20.58" x2="500.11" y2="307.64" gradientUnits="userSpaceOnUse"><stop offset="0" stop-color="#21428c"/><stop offset=".32" stop-color="#fffffc"/><stop offset=".32" stop-color="#160c2b"/><stop offset=".4" stop-color="#381c5d"/><stop offset="1" stop-color="#c7c0d3"/></linearGradient></defs><g id="Rockstar_Logo_Group"><path class="cls-1" d="M987.01,183.05l-69.26-68.12c6.73-10.07,10.32-21.92,10.32-34.04,0-33.85-27.44-61.31-61.29-61.31h-.14s-61.17,0-61.17,0v163.47h40.87v-81.35h.39l83.07,81.35h57.21ZM866.78,101.32h-20.44v-40.87h20.47c11.28,0,20.44,9.15,20.44,20.44s-9.13,20.42-20.4,20.44h-.06ZM748.32,70.2l.04.04,50.65-50.65v163.47h-40.87v-40.87l-.26-23.77-65.98,64.91h-58.44l114.84-113.14ZM593.36,60.73h-14.74l-47.11.09c-7.47,0-9.68,7.55-8.2,12.68,1.2,4.2,4.84,7.25,8.99,7.66l39.02,6.9c25.62,3.86,43.3,27.99,39.64,54.09-3.65,25.93-21.28,41.18-51.99,41.18h-22.73l-40.87-40.87h63.46c5.26,0,9.32-3.42,9.27-9.56-.04-5.32-3.34-10.02-8.55-10.87l-39.12-6.85s-.03,0-.04,0c-25.88-2.72-44.63-26.28-41.86-52.61,2.77-26.33,26.34-42.72,51.89-42.75.18,0,48.2.03,48.2.03h212.52l-40.87,40.87h-81.23l-.51,81.74-40.87,40.87V60.73h-34.31ZM424,19.86v23.16l23.16-23.16h54.49l-68.12,68.12,95.36,95.36h-54.49l-50.41-50.41v50.41h-41.55V60.92l41.55-41.06ZM348.48,60.72c.25,0,.51,0,.75,0h0s26.56-.28,26.56-.28l40.87-40.87-26.56.28h-41.58c-24.43,0-46.36,10.72-61.34,27.72-14.99-17.45-37.22-28.5-62.01-28.5-45.14,0-81.74,36.6-81.75,81.73v1.02c0,13.91,3.48,27.02,9.62,38.5l-25.39-25.39c6.72-10.06,10.32-21.92,10.32-34.04,0-33.85-27.44-61.31-61.29-61.31H15.37v163.47h40.86v-81.34h.39l209.56,209.55v-57.8l-79.51-79.51c11.47,6.14,24.57,9.61,38.48,9.61,24.67,0,46.79-10.93,61.79-28.21,14.98,17.15,37.01,27.98,61.56,27.98h.73l26.56-.27v-40.88l-26.56.29h0c-.24,0-.5,0-.75,0-22.57,0-40.87-18.31-40.87-40.87s18.31-40.87,40.87-40.87ZM76.75,101.32h-20.51v-40.87h20.44c11.2.12,20.22,9.24,20.22,20.44s-8.98,20.28-20.15,20.44ZM225.16,142.19c-22.57,0-40.86-18.31-40.86-40.87s18.31-40.87,40.87-40.86c22.57,0,40.87,18.31,40.87,40.87,0,22.57-18.31,40.87-40.88,40.86Z"/><path class="cls-2" d="M59.86,102.82h16.89c11.95-.17,21.65-10.01,21.65-21.94s-9.73-21.81-21.7-21.94h-20.46c-.83,0-1.5.67-1.5,1.5v40.87c0,.07,0,.13.01.2,0,.06-.01.13-.01.2v79.84H16.87V21.08h59.82c32.97,0,59.79,26.83,59.79,59.81,0,11.88-3.49,23.36-10.07,33.21-.4.6-.32,1.39.19,1.89l25.39,25.39c.29.29.67.44,1.06.44.31,0,.63-.1.89-.3.6-.44.78-1.26.43-1.91-6.18-11.54-9.44-24.6-9.44-37.79v-1.02c0-44.24,36-80.23,80.24-80.23,23.42,0,45.61,10.2,60.89,27.98.28.33.69.52,1.13.52h0c.43,0,.84-.19,1.13-.51,15.23-17.29,37.17-27.21,60.19-27.21h41.61l22.91-.24-37.84,37.84-25.95.26s-.08,0-.13,0h-.61c-23.36,0-42.37,19-42.37,42.36s19.01,42.37,42.37,42.37h.61s.15,0,.15,0l25.05-.27v37.88l-25.08.25h-.71c-23.15,0-45.18-10.01-60.43-27.46-.28-.33-.7-.51-1.13-.51h0c-.43,0-.85.19-1.13.52-15.27,17.6-37.37,27.7-60.63,27.7-13.2,0-26.27-3.26-37.8-9.44-.22-.12-.47-.18-.71-.18-.46,0-.91.21-1.21.61-.44.6-.38,1.43.14,1.95l79.07,79.07v53.56L59.86,102.82ZM225.15,58.95c-23.36,0-42.36,19-42.36,42.36s19,42.37,42.36,42.37,42.37-19,42.38-42.36c0-23.36-19.01-42.37-42.37-42.37h-.02ZM637.14,181.83l111.96-110.29c.12-.06.23-.15.33-.24l48.09-48.09v158.35h-37.87v-39.37l-.26-23.78c0-.6-.37-1.14-.93-1.37-.18-.08-.38-.11-.57-.11-.39,0-.77.15-1.05.43l-65.54,64.48h-54.16ZM536.86,181.83l-37.87-37.87h59.84c3.09,0,5.86-1.07,7.79-3.02,1.98-1.99,3.01-4.78,2.98-8.05-.05-6.33-4.08-11.4-9.8-12.34l-39.1-6.84s-.12-.02-.17-.02c-25-2.63-43.18-25.49-40.5-50.95,2.85-27.15,27.51-41.38,50.4-41.4.18,0,48.2.03,48.2.03h208.9l-37.87,37.87h-80.61c-.82,0-1.49.67-1.5,1.49l-.51,81.12-37.87,37.87V60.73c0-.83-.67-1.5-1.5-1.5h-49.04l-47.11.09c-3.29,0-6.01,1.29-7.85,3.73-2.16,2.87-2.86,7.13-1.79,10.86,1.36,4.73,5.46,8.23,10.23,8.73l38.97,6.89c24.74,3.72,41.95,27.23,38.41,52.4-3.67,26.1-21.13,39.89-50.51,39.89h-22.11ZM475.03,181.83l-49.97-49.97c-.29-.29-.67-.44-1.06-.44-.19,0-.39.04-.57.11-.56.23-.93.78-.93,1.39v48.91h-38.55V61.54l38.55-38.09v19.56c0,.61.37,1.15.93,1.39.19.08.38.11.57.11.39,0,.77-.15,1.06-.44l22.72-22.72h50.25l-65.55,65.55c-.59.59-.59,1.54,0,2.12l92.8,92.8h-50.25ZM930.41,181.55l-80.4-78.73h16.77c12.14-.02,21.97-9.86,21.97-21.94s-9.84-21.94-21.94-21.94h-20.47c-.83,0-1.5.67-1.5,1.5v40.87c0,.06,0,.13.01.19,0,.06-.01.13-.01.19v79.85h-37.87V21.08h59.81c32.97,0,59.79,26.83,59.79,59.81,0,11.87-3.48,23.35-10.07,33.21-.4.6-.32,1.4.2,1.9l66.65,65.55h-52.94Z"/><path d="M225.18,22.08c22.97,0,44.74,10.01,59.73,27.45.57.66,1.39,1.04,2.26,1.04,0,0,.01,0,.02,0,.86,0,1.68-.37,2.25-1.02,14.95-16.97,36.47-26.7,59.09-26.7h41.61s19.21-.2,19.21-.2l-34.81,34.81-25.34.26c-.06,0-.11,0-.17,0-.04,0-.08,0-.12,0-.14,0-.29,0-.43,0-24.19,0-43.87,19.68-43.87,43.87s19.68,43.87,43.87,43.87c.14,0,.29,0,.43,0,.04,0,.08,0,.12,0,.07,0,.13,0,.2,0,.01,0,.02,0,.03,0l23.53-.25v34.88l-23.56.24h-.73c-22.72,0-44.33-9.82-59.3-26.95-.57-.65-1.39-1.03-2.26-1.03h0c-.87,0-1.69.38-2.26,1.03-14.99,17.27-36.67,27.18-59.52,27.18-12.93,0-25.75-3.2-37.06-9.26-.45-.24-.93-.36-1.41-.36-.92,0-1.83.43-2.41,1.21-.89,1.19-.76,2.86.29,3.91l78.63,78.63v49.31L63.48,104.32h13.31c12.74-.18,23.11-10.69,23.11-23.44s-10.4-23.3-23.22-23.44h-20.44c-1.66,0-3,1.34-3,3v40.87c0,.07,0,.13,0,.2,0,.06,0,.13,0,.2v78.34H18.37V22.58h58.32c32.14,0,58.29,26.16,58.29,58.31,0,11.58-3.4,22.78-9.82,32.38-.8,1.19-.64,2.78.37,3.79l25.39,25.39c.58.58,1.35.88,2.12.88.63,0,1.25-.19,1.79-.59,1.19-.89,1.56-2.51.86-3.83-6.06-11.32-9.27-24.14-9.27-37.08v-1.02c0-43.41,35.33-78.73,78.74-78.73h.01M225.16,145.19h.02c24.18,0,43.86-19.68,43.86-43.86,0-24.19-19.68-43.87-43.89-43.87-24.18,0-43.86,19.68-43.86,43.86s19.68,43.87,43.86,43.87M866.64,22.58h.15c15.57,0,30.21,6.07,41.22,17.08,11.01,11.01,17.07,25.65,17.07,41.23,0,11.57-3.4,22.76-9.82,32.37-.8,1.2-.64,2.8.39,3.81l64.04,62.98h-48.66l-77.34-75.73h13.16c12.9-.02,23.4-10.53,23.4-23.44s-10.51-23.44-23.47-23.44h-20.44c-1.66,0-3,1.34-3,3v40.87c0,.06,0,.13,0,.19,0,.06,0,.13,0,.19v78.35h-34.87V22.58h58.17M530.43,22.83c.38,0,48.2.03,48.2.03h205.27l-34.87,34.87h-79.98c-1.65,0-2.99,1.33-3,2.98l-.5,80.51-34.87,34.87V60.73c0-1.66-1.34-3-3-3h-49.05l-47.1.09c-3.73,0-6.95,1.54-9.05,4.33-2.43,3.23-3.23,8.01-2.04,12.18,1.52,5.3,6.12,9.22,11.46,9.81l38.92,6.88s.05,0,.08.01c11.6,1.75,21.83,7.96,28.83,17.51,7.01,9.56,9.95,21.35,8.28,33.19-3.55,25.25-20.5,38.6-49.02,38.6h-21.49l-34.87-34.87h56.22c3.49,0,6.64-1.23,8.85-3.46,2.26-2.28,3.45-5.44,3.42-9.12-.06-7.07-4.61-12.75-11.03-13.8l-39.12-6.85c-.07-.01-.12-.02-.19-.03-.02,0-.03,0-.05,0-24.2-2.54-41.78-24.66-39.19-49.31,2.76-26.27,26.69-40.04,48.9-40.06h0M494.41,22.86l-62.99,62.99c-1.17,1.17-1.17,3.07,0,4.24l90.24,90.24h-46.01l-49.53-49.53c-.57-.57-1.34-.88-2.12-.88-.39,0-.78.07-1.15.23-1.12.46-1.85,1.56-1.85,2.77v47.41h-35.55V62.17l35.55-35.13v15.97c0,1.21.73,2.31,1.85,2.77.37.15.76.23,1.15.23.78,0,1.55-.3,2.12-.88l22.29-22.28h46.01M796.02,26.82v153.23h-34.87v-37.9s-.26-23.77-.26-23.77c-.01-1.2-.74-2.28-1.86-2.74-.37-.15-.76-.23-1.14-.23-.77,0-1.53.3-2.1.86l-65.1,64.05h-49.89l109.21-107.59c.17-.11.32-.24.47-.38l45.53-45.53M225.16,19.08c-45.14,0-81.73,36.6-81.74,81.73v1.02c0,13.92,3.48,27.02,9.62,38.5l-25.39-25.39c6.72-10.06,10.32-21.92,10.32-34.04,0-33.85-27.44-61.31-61.29-61.31H15.37v163.47h40.86v-81.34h.39l209.56,209.55v-57.8l-79.51-79.51c11.47,6.14,24.57,9.61,38.48,9.61h.03c24.66,0,46.77-10.93,61.76-28.21,14.98,17.15,37.01,27.98,61.56,27.98h.73l26.56-.27v-40.88l-26.56.29h0c-.24,0-.5,0-.75,0-22.57,0-40.87-18.31-40.87-40.87s18.31-40.87,40.87-40.87c.25,0,.51,0,.75,0h0s26.56-.28,26.56-.28l40.87-40.87-26.56.28h-41.61c-24.42,0-46.34,10.72-61.31,27.72-14.99-17.45-37.22-28.5-62.01-28.5h-.02ZM56.24,101.32v-40.87h20.44c11.2.12,20.22,9.24,20.22,20.44s-8.98,20.28-20.15,20.44h-20.51ZM225.17,142.19h-.02c-22.57,0-40.86-18.31-40.86-40.87s18.3-40.86,40.86-40.86h.02c22.57,0,40.87,18.31,40.87,40.87,0,22.56-18.3,40.86-40.86,40.86h0ZM799.02,19.58l-50.65,50.65-.04-.04-114.84,113.14h58.44l65.98-64.91.26,23.77v40.87h40.87V19.58h0ZM866.64,19.58h-61.17v163.47h40.87v-81.35h.39l83.07,81.35h57.21l-69.26-68.12c6.73-10.07,10.32-21.92,10.32-34.04,0-33.85-27.44-61.31-61.29-61.31h-.14ZM846.34,101.32v-40.87h20.47c11.28,0,20.44,9.15,20.44,20.44s-9.13,20.42-20.4,20.44h-.06s-20.44,0-20.44,0h0ZM530.43,19.83h0c-25.54.03-49.12,16.42-51.89,42.75-2.77,26.33,15.98,49.88,41.86,52.61.01,0,.03,0,.04,0l39.12,6.85c5.21.86,8.51,5.56,8.55,10.87.05,6.14-4.01,9.56-9.27,9.56h-63.46l40.87,40.87h22.73c30.71,0,48.35-15.25,51.99-41.18,3.67-26.1-14.01-50.23-39.63-54.09l-39.02-6.9c-4.15-.41-7.79-3.46-8.99-7.66-1.47-5.13.74-12.68,8.2-12.68l47.11-.09h49.04v122.61l40.87-40.87.51-81.74h81.23l40.87-40.87h-212.52s-47.82-.03-48.2-.03h0ZM501.66,19.86h0,0ZM501.66,19.86h-54.49l-23.16,23.16v-23.16l-41.55,41.06v122.41h41.55v-50.41l50.41,50.41h54.49l-95.36-95.36,68.12-68.12h0ZM791.14,19.86h0,0Z"/></g></svg>